<?xml version="1.0" encoding="UTF-8"?>
<svg xmlns="http://www.w3.org/2000/svg" version="1.1" viewBox="0 0 24 24">
  <!-- Generator: Adobe Illustrator 28.7.1, SVG Export Plug-In . SVG Version: 1.2.0 Build 142)  -->
  <g>
    <g id="_レイヤー_1" data-name="レイヤー_1">
      <path d="M22.7,0H1.3C.6,0,0,.6,0,1.3v21.4c0,.7.6,1.3,1.3,1.3h11.5v-9.3h-3.1v-3.6h3.1v-2.7c0-3.1,1.9-4.8,4.7-4.8s2.5,0,2.8.1v3.2h-1.9c-1.5,0-1.8.7-1.8,1.8v2.3h3.6l-.5,3.6h-3.1v9.3h6.1c.7,0,1.3-.6,1.3-1.3V1.3C24,.6,23.4,0,22.7,0"/>
    </g>
  </g>
</svg>