<?xml version="1.0" encoding="utf-8"?>
<!-- Generator: Adobe Illustrator 25.4.1, SVG Export Plug-In . SVG Version: 6.00 Build 0)  -->
<svg version="1.1" id="レイヤー_1" xmlns:figma="http://www.figma.com/figma/ns"
	 xmlns="http://www.w3.org/2000/svg" xmlns:xlink="http://www.w3.org/1999/xlink" x="0px" y="0px" viewBox="0 0 569.2 163.6"
	 style="enable-background:new 0 0 569.2 163.6;" xml:space="preserve">
<style type="text/css">
	.st0{fill:#FFFFFF;}
	.st1{fill:none;}
	.st2{fill:#004097;}
</style>
<path class="st0" d="M12.7,144l-9,19.6H81l-9-19.6l-0.1-0.3l12.8-90.9C67.3,43.4,55.5,25.8,42.4,0C29.3,25.8,17.4,43.4,0,52.7
	l12.8,90.9L12.7,144z"/>
<g>
	<g>
		<path class="st0" d="M143.6,13.4v24.1h29.9v8.5h-29.9V77h35v8.4h-75.4V77h31.6V13.4H143.6z"/>
		<path class="st0" d="M230.1,25.5c-11.4,0.7-19.8,0.8-24.9,0.9l-1.8-7.2c21.4-0.2,42.1-1.3,62.5-6.1l3.5,6.9
			c-4,1-12.8,3.5-30.8,4.9v10.6l30.7-1.4l0.3,8.1l-31,1.5v10.7l34.9-1.6l0.3,8.2l-35.2,1.5v14.4c0,1.4,0.7,2.5,1.8,2.5h21.8
			c3.3,0,3.3-0.2,4.1-11.6l8.1,2c0,2.8-0.6,11.1-1.5,13.4c-1.4,3.4-5,4.1-8,4.1h-27.2c-5,0-7.7-2.4-7.7-7V62.8l-30.4,1.3l-0.3-8
			l30.7-1.4V44l-27,1.4l-0.4-8.1l27.4-1.3L230.1,25.5L230.1,25.5z"/>
		<path class="st0" d="M292.8,75.3c5.2-3.5,11.1-7.7,16.2-14.9h-13.9V53h16.2v-7.4h-16.6v-7.2h8.8c-0.1-0.6-0.9-7.1-2.4-11.4h-4.9
			v-7.3h15v-6.6h7.6v6.6h13.8V27H329c-1.7,7.3-1.8,8.2-2.9,11.4h7.8v7.2h-15V53h13.1v7.3h-11.6c1.8,2.2,5.2,6.2,9.8,9.1l-4,7.2
			c-4.1-4-5.1-5.3-7.3-8.5v20h-7.6V68.2c-6.5,8.7-11.1,12.2-14.1,14.3L292.8,75.3z M308.4,27c1.2,3.8,2.4,10.4,2.5,11.4h8
			c1-3.2,2.1-8.5,2.5-11.4H308.4z M369.2,20.6c-7.2,3.4-16.1,5.7-24.6,6v12.1h24.6v7.6h-7.8v41.8h-8.3V46.3h-8.5v2.2
			c0,22.2-4.4,30.8-10.7,39.6l-7.7-5.4c6.9-8.3,10.4-16.4,10.4-34V19.1c14,0.2,22.9-3.5,28-6L369.2,20.6z"/>
		<path class="st0" d="M393.1,15.8h30.2v24.4h-22.4V88h-7.8V15.8z M400.9,21.5v4.3h14.9v-4.3H400.9z M400.9,30.2v4.4h14.9v-4.4
			H400.9z M403.7,75.3c2.5,0,4,0,6.8-0.1V50.2h-4.6v-6h43.9v6h-5.2v35.8h-6.9v-6.5c-8.8,1.3-22.9,2.2-33.4,2.6L403.7,75.3z
			 M417.3,54.7h20.3v-4.5h-20.3V54.7z M417.3,64.6h20.3V60h-20.3V64.6z M437.6,69.8h-20.3V75c8.4-0.3,14.3-0.7,20.3-1.3V69.8z
			 M431.4,15.8H462v65.9c0,4-1.9,6.4-6.1,6.4h-8.6l-1.2-7.9h6.5c0.7,0,1.5-0.2,1.5-1.4V40.1h-22.6V15.8z M438.9,25.8H454v-4.3h-15.1
			V25.8z M438.9,34.6H454v-4.4h-15.1V34.6z"/>
		<path class="st0" d="M506.2,88.1H498V57.3c-4.8,4.5-7.2,5.9-9.6,7.4l-3.5-8.1c10.2-6,18-14.6,21.7-23.3h-20.6v-7.8h12V13.1h8.2
			v12.4h9.3v7.8c-1.4,3-3.2,7-8,13.5c4.1,4.6,6,6,11.1,9.8l-3.8,7.6c-3.7-3-5.9-5.2-8.6-8.4L506.2,88.1L506.2,88.1z M533.3,13.1h8.4
			v22.5h17.1v8.5h-17.1v32.7h18.9v8.5h-47.3v-8.5h20.1V44.2h-16.6v-8.5h16.6V13.1z"/>
	</g>
	<g>
		<path class="st0" d="M99.1,139.3l1.1,0.4c0.1,0.7,0.5,1.4,1.1,2c0.6,0.5,1.3,1,2.1,1.4c0.8,0.4,1.7,0.7,2.7,0.9
			c1,0.2,1.9,0.3,2.8,0.3c2.8,0,4.8-0.4,6.1-1.2c1.3-0.8,1.9-2.3,1.9-4.6v-22.4c0-0.6-0.3-1.2-0.8-1.5c-0.6-0.4-1.1-0.6-1.6-0.6
			v-1.2h13.2v1.2c-0.8,0-1.5,0.2-2,0.6c-0.6,0.4-0.8,0.9-0.8,1.5v23c0,1.8-0.4,3.4-1.1,4.8c-0.8,1.3-1.8,2.5-3.2,3.4
			c-1.4,0.9-3.1,1.5-5,1.9c-1.9,0.4-4,0.6-6.3,0.6c-1.4,0-2.8-0.1-4-0.3c-1.2-0.2-2.3-0.4-3.2-0.7c-1-0.2-1.8-0.5-2.5-0.7
			c-0.7-0.2-1.3-0.3-1.8-0.3c-0.5,0-0.9,0.3-1.3,0.8l-1-0.7L99.1,139.3z"/>
		<path class="st0" d="M159.4,113.6c2.7,0.8,5.1,1.9,7.3,3.4c2.2,1.5,4,3.5,5.4,5.8c1.4,2.3,2.1,5.1,2.1,8.3c0,3.2-0.7,6-2.1,8.3
			c-1.4,2.4-3.2,4.3-5.4,5.8c-2.2,1.5-4.6,2.6-7.3,3.3c-2.6,0.7-5.3,1.1-7.8,1.1c-2.6,0-5.2-0.4-7.8-1.1c-2.6-0.7-5.1-1.8-7.2-3.3
			c-2.2-1.5-4-3.5-5.4-5.8c-1.4-2.3-2.1-5.1-2.1-8.3c0-3.2,0.7-6,2.1-8.3c1.4-2.3,3.2-4.3,5.4-5.8c2.2-1.5,4.6-2.7,7.2-3.4
			c2.7-0.8,5.2-1.1,7.8-1.1C154.1,112.4,156.7,112.8,159.4,113.6z M146.3,119.7c-1.8,0.6-3.4,1.3-4.8,2.4c-1.4,1-2.6,2.3-3.5,3.9
			c-0.9,1.5-1.3,3.3-1.3,5.2c0,1.9,0.4,3.7,1.3,5.2c0.9,1.5,2,2.8,3.5,3.9c1.4,1,3,1.8,4.8,2.4c1.8,0.6,3.5,0.8,5.3,0.8
			c1.8,0,3.5-0.3,5.3-0.8c1.8-0.5,3.4-1.4,4.8-2.4c1.4-1.1,2.6-2.3,3.4-3.9c0.9-1.5,1.3-3.3,1.3-5.2c0-2-0.4-3.7-1.3-5.2
			c-0.9-1.5-2-2.8-3.4-3.9c-1.4-1-3-1.8-4.8-2.4c-1.8-0.6-3.5-0.8-5.3-0.8C149.8,118.8,148,119.1,146.3,119.7z"/>
		<path class="st0" d="M177.8,148.3c0.4,0,0.7-0.1,1-0.3c0.3-0.2,0.4-0.5,0.4-0.9v-31.8c0-0.4-0.1-0.7-0.4-0.9
			c-0.3-0.2-0.6-0.2-1-0.2v-1.2h13v1.2c-0.2,0-0.5,0.1-0.7,0.2c-0.3,0.1-0.4,0.4-0.4,0.6c0,0.2,0.1,0.5,0.3,0.9
			c0.2,0.4,0.4,0.8,0.6,1.2l10,18.1l10-17.9c0.3-0.6,0.6-1.1,0.7-1.4c0.2-0.4,0.2-0.7,0.2-0.9c0-0.5-0.3-0.8-0.9-0.8v-1.2h12.9v1.2
			c-0.4,0-0.7,0.1-1,0.2c-0.3,0.2-0.4,0.5-0.4,0.9V147c0,0.4,0.1,0.7,0.4,0.9c0.3,0.2,0.6,0.3,1,0.3v1.3h-10.9v-1.3
			c1.3,0,1.9-0.4,1.9-1.3v-23.1h-0.1l-14,25.7h-0.2l-13.7-25.7h-0.1V147c0,0.8,0.6,1.3,1.9,1.3v1.3h-10.4L177.8,148.3L177.8,148.3z"
			/>
		<path class="st0" d="M257.7,113.6c2.6,0.8,5.1,1.9,7.2,3.4c2.2,1.5,4,3.5,5.4,5.8c1.4,2.3,2.1,5.1,2.1,8.3c0,3.2-0.7,6-2.1,8.3
			c-1.4,2.4-3.2,4.3-5.4,5.8c-2.2,1.5-4.6,2.6-7.2,3.3c-2.7,0.7-5.3,1.1-7.8,1.1c-2.6,0-5.2-0.4-7.8-1.1c-2.7-0.7-5.1-1.8-7.2-3.3
			c-2.2-1.5-4-3.5-5.4-5.8c-1.4-2.3-2.1-5.1-2.1-8.3c0-3.2,0.7-6,2.1-8.3c1.4-2.3,3.2-4.3,5.4-5.8c2.2-1.5,4.6-2.7,7.2-3.4
			c2.6-0.8,5.3-1.1,7.8-1.1C252.5,112.4,255.1,112.8,257.7,113.6z M244.6,119.7c-1.8,0.6-3.4,1.3-4.8,2.4c-1.4,1-2.6,2.3-3.5,3.9
			c-0.9,1.5-1.3,3.3-1.3,5.2c0,1.9,0.4,3.7,1.3,5.2c0.9,1.5,2,2.8,3.5,3.9c1.4,1,3,1.8,4.8,2.4c1.8,0.6,3.5,0.8,5.3,0.8
			c1.8,0,3.5-0.3,5.3-0.8c1.8-0.5,3.3-1.4,4.8-2.4c1.4-1.1,2.6-2.3,3.5-3.9c0.9-1.5,1.3-3.3,1.3-5.2c0-2-0.4-3.7-1.3-5.2
			c-0.9-1.5-2-2.8-3.5-3.9c-1.4-1-3-1.8-4.8-2.4c-1.8-0.6-3.5-0.8-5.3-0.8C248.1,118.8,246.4,119.1,244.6,119.7z"/>
		<path class="st0" d="M293.1,138l0.7,0.3c0,0.4,0.1,0.8,0.3,1.1c0.3,0.6,1,1.1,1.9,1.6c1,0.5,2,1,3.3,1.4c1.2,0.4,2.5,0.7,3.9,1
			c1.3,0.2,2.6,0.4,3.6,0.4c0.8,0,1.8-0.1,3.1-0.2c1.2-0.1,2.5-0.4,3.7-0.7c1.2-0.4,2.2-0.9,3.1-1.5c0.9-0.6,1.3-1.5,1.3-2.6
			c0-1.1-0.4-1.9-1.2-2.4c-0.8-0.5-1.9-0.9-3.2-1.1c-1.3-0.2-2.8-0.4-4.5-0.4c-1.7-0.1-3.4-0.2-5.2-0.3c-1.8-0.1-3.5-0.4-5.2-0.7
			c-1.7-0.3-3.2-0.9-4.5-1.6c-1.3-0.8-2.4-1.8-3.2-3.1c-0.8-1.3-1.2-3.1-1.2-5.2c0-1.4,0.3-2.8,1-4.2c0.7-1.4,1.7-2.6,3.1-3.7
			c1.4-1.1,3.2-1.9,5.3-2.6c2.1-0.7,4.7-1,7.5-1c2.5,0,4.6,0.2,6.4,0.5c1.8,0.4,3.4,0.8,4.7,1.2c1.3,0.4,2.4,0.8,3.3,1.2
			c0.9,0.4,1.7,0.6,2.3,0.6c0.6,0,1.1-0.1,1.4-0.4l0.8,0.6l-4.8,8.7l-0.7-0.3c-0.1-0.7-0.3-1.2-0.6-1.6c-0.4-0.6-1-1.1-1.9-1.7
			c-0.9-0.5-1.9-1-3-1.4c-1.2-0.4-2.4-0.8-3.8-1c-1.4-0.3-2.7-0.4-4-0.4c-1,0-2.1,0.1-3.2,0.3c-1.1,0.2-2.1,0.4-2.9,0.7
			c-0.9,0.3-1.6,0.8-2.2,1.3c-0.6,0.6-0.9,1.2-0.9,2c0,1.1,0.4,2,1.2,2.5c0.8,0.6,1.9,1,3.2,1.3c1.3,0.3,2.8,0.5,4.5,0.6
			c1.7,0.1,3.4,0.2,5.2,0.4c1.8,0.1,3.5,0.4,5.2,0.7c1.7,0.4,3.2,0.9,4.5,1.7c1.3,0.8,2.4,1.8,3.2,3.1c0.8,1.3,1.2,3,1.2,5.1
			c0,2.4-0.6,4.4-1.9,5.9c-1.3,1.5-2.9,2.7-4.8,3.6c-1.9,0.9-4,1.5-6.2,1.8c-2.2,0.3-4.3,0.4-6.2,0.4c-2.6,0-4.9-0.1-6.6-0.4
			c-1.8-0.3-3.3-0.7-4.5-1.1c-1.2-0.4-2.1-0.8-2.8-1.2c-0.7-0.4-1.3-0.5-1.8-0.5c-0.3,0-0.6,0.2-0.9,0.5l-1-0.5L293.1,138z"/>
		<path class="st0" d="M362.2,115.4c0-0.8-0.5-1.3-1.6-1.3v-1.2h10.8v1.2c-0.3,0-0.6,0.1-0.9,0.3c-0.3,0.2-0.4,0.5-0.4,1V147
			c0,0.4,0.1,0.7,0.4,0.9c0.3,0.2,0.5,0.3,0.9,0.3v1.3h-10.8v-1.3c1,0,1.6-0.4,1.6-1.3v-13.1h-22.5V147c0,0.4,0.1,0.7,0.4,0.9
			c0.3,0.2,0.5,0.3,0.9,0.3v1.3h-10.5v-1.3c0.9,0,1.3-0.4,1.3-1.3v-31.6c0-0.8-0.4-1.3-1.3-1.3v-1.2H341v1.2c-0.3,0-0.6,0.1-0.9,0.3
			c-0.3,0.2-0.4,0.5-0.4,1v11.8h22.5V115.4z"/>
		<path class="st0" d="M376.9,148.3c1.2,0,1.8-0.4,1.8-1.3v-31.6c0-0.8-0.6-1.3-1.8-1.3v-1.2h11.6v1.2c-1.2,0-1.8,0.4-1.8,1.3V147
			c0,0.8,0.6,1.3,1.8,1.3v1.3h-11.6V148.3z"/>
		<path class="st0" d="M393.7,148.3c0.9,0,1.3-0.4,1.3-1.3v-31.6c0-0.8-0.4-1.3-1.3-1.3v-1.2h11.9v1.2c-0.4,0-0.6,0.2-0.6,0.7
			c0,0.4,0.5,1,1.4,1.9l20,20.8v-22.2c0-0.8-0.6-1.3-1.8-1.3v-1.2h10.5v1.2c-0.9,0-1.3,0.4-1.3,1.3V147c0,0.8,0.4,1.3,1.3,1.3v1.3
			h-11.3v-1.3c0.6,0,0.9-0.2,0.9-0.6c0-0.3-0.4-0.9-1.1-1.6l-21.3-22.2V147c0,0.8,0.5,1.3,1.6,1.3v1.3h-10.3V148.3z"/>
		<path class="st0" d="M468.4,113.4c2,0.4,3.8,0.9,5.3,1.7c1.6,0.8,2.8,1.8,3.7,3c0.9,1.2,1.4,2.8,1.4,4.6c0,2.2-0.7,3.9-2,5
			c-1.4,1.2-3,2.1-4.8,2.8v0.1c2.2,0.6,4,1.7,5.5,3.1c1.5,1.4,2.3,3.4,2.3,6.1c0,1.4-0.3,2.7-0.9,3.9c-0.6,1.2-1.5,2.2-2.7,3.1
			c-1.2,0.9-2.6,1.6-4.4,2.1c-1.7,0.5-3.7,0.7-5.9,0.7h-25.6v-1.3c1.3,0,2-0.4,2-1.3v-31.6c0-0.8-0.7-1.3-2-1.3v-1.2h21.8
			C464.4,112.9,466.4,113,468.4,113.4z M463.6,127.2c2.1,0,3.8-0.3,5.2-0.8c1.4-0.5,2.1-1.6,2.1-3.4c0-1.7-0.7-2.8-2.1-3.4
			c-1.4-0.5-3.1-0.8-5.2-0.8h-13.3v8.4L463.6,127.2L463.6,127.2z M463.6,143.1c2.9,0,5-0.5,6.3-1.4c1.3-0.9,1.9-2.1,1.9-3.6
			c0-1.5-0.6-2.7-1.9-3.6c-1.3-0.9-3.4-1.4-6.3-1.4h-13.3v9.9L463.6,143.1L463.6,143.1z"/>
		<path class="st0" d="M494,114.1c-1,0-1.5,0.4-1.5,1.3v20.9c0,2.9,0.9,4.9,2.8,6c1.9,1.1,4.6,1.6,8.2,1.6c3.6,0,6.4-0.6,8.3-1.6
			c1.9-1.1,2.8-3.1,2.8-6v-20.9c0-0.8-0.7-1.3-2.1-1.3v-1.2h11.2v1.2c-1.1,0-1.7,0.4-1.7,1.3v20.6c0,2.7-0.4,5-1.2,6.8
			c-0.8,1.8-2,3.2-3.5,4.3c-1.6,1.1-3.6,1.8-5.9,2.2c-2.3,0.4-5,0.6-8.1,0.6c-3.1,0-5.8-0.2-8.1-0.6c-2.4-0.4-4.3-1.1-5.9-2.2
			c-1.6-1.1-2.8-2.5-3.6-4.3c-0.8-1.8-1.2-4.1-1.2-6.8v-20.6c0-0.8-0.7-1.3-1.9-1.3v-1.2H494L494,114.1L494,114.1z"/>
		<path class="st0" d="M527.7,148.3c0.9,0,1.3-0.4,1.3-1.3v-31.6c0-0.8-0.4-1.3-1.3-1.3v-1.2h11.9v1.2c-0.4,0-0.6,0.2-0.6,0.7
			c0,0.4,0.5,1,1.4,1.9l20,20.8v-22.2c0-0.8-0.6-1.3-1.8-1.3v-1.2h10.5v1.2c-0.9,0-1.3,0.4-1.3,1.3V147c0,0.8,0.5,1.3,1.3,1.3v1.3
			h-11.3v-1.3c0.6,0,0.9-0.2,0.9-0.6c0-0.3-0.4-0.9-1.1-1.6l-21.3-22.2V147c0,0.8,0.5,1.3,1.6,1.3v1.3h-10.3L527.7,148.3
			L527.7,148.3z"/>
	</g>
</g>
<g>
	<path class="st1" d="M29,68.1c0.6,0.6,1.4,0.8,2.2,0.8c0.8,0,1.5-0.2,2.2-0.8c0.8-0.7,1.2-2,1.2-3.3c0-1.3-0.4-2.5-1.2-3.3
		c-0.6-0.6-1.4-0.8-2.2-0.8c-0.5,0-0.9,0.1-1.4,0.3l-1.3,6.4C28.6,67.8,28.8,68,29,68.1z"/>
	<polygon class="st1" points="67.5,92.9 73.4,101.1 74.6,101.1 74.7,89.4 72.2,89.4 72.2,95.8 67.7,89.4 65.1,89.4 65.1,101.1 
		67.5,101.1 	"/>
	<path class="st1" d="M72.8,71.2c1.5,0,2.9-0.5,3.9-1.5c1.1-1.1,1.7-2.9,1.7-4.7c0-1.8-0.6-3.5-1.7-4.7c-1-1-2.4-1.5-3.9-1.5
		c-1.5,0-2.9,0.5-3.9,1.5c-1.1,1.2-1.7,2.9-1.7,4.7c0,1.8,0.6,3.6,1.7,4.7C69.9,70.8,71.3,71.2,72.8,71.2z M70.7,61.8
		c0.6-0.6,1.4-0.8,2.2-0.8c0.8,0,1.5,0.2,2.2,0.8c0.8,0.7,1.2,2,1.2,3.3c0,1.3-0.4,2.5-1.2,3.3c-0.6,0.6-1.4,0.8-2.2,0.8
		c-0.8,0-1.5-0.2-2.2-0.8c-0.8-0.7-1.2-2-1.2-3.3C69.5,63.8,69.9,62.5,70.7,61.8z"/>
	<polygon class="st1" points="57,58.8 54.5,58.8 56.9,70.6 57,70.6 	"/>
	<path class="st1" d="M11.9,71.2c1,0,2-0.4,2.6-1.1c0.6-0.6,0.8-1.3,0.8-2.1v-9h-2.4v8.8c0,0.6-0.3,1.2-1.3,1.3
		c-1.4,0.1-1.4-1-1.4-1.5v-1.2H7.9v1.3c0.1,1.1,0.4,2.3,1.6,3C10,71.1,11,71.3,11.9,71.2z"/>
	<path class="st1" d="M25.5,64.9c0,1.8,0.6,3.6,1.7,4.7c0.2,0.2,0.5,0.4,0.7,0.6l0.5-2.6c-0.4-0.7-0.6-1.7-0.7-2.6
		c0-1.3,0.4-2.5,1.2-3.3c0.2-0.2,0.5-0.4,0.8-0.5l0.5-2.3c-1.2,0.1-2.3,0.6-3,1.4C26.1,61.3,25.5,63.1,25.5,64.9z"/>
	<path class="st1" d="M26.2,126.2h-3.3v3h2.8c0.7,0,1.8,0,1.8-1.6C27.6,126.3,26.6,126.2,26.2,126.2z"/>
	<path class="st1" d="M15.5,101.5c1.3,0,2.7-0.2,3.7-0.8c1.5-0.9,2.1-3.7,0.7-5.2c-0.7-0.8-2.1-1.1-2.8-1.2c-0.5-0.1-2.7-0.4-3-0.7
		c-0.5-0.2-0.8-0.4-0.8-1.2c0.1-1,1-1.4,2.1-1.3c1.7,0,2.5,0.9,2.4,1.9h2.3c0.1-0.4-0.1-1.5-0.7-2.3c-1.1-1.5-3.3-1.5-4-1.5
		c-2.9,0-4.2,1.4-4.4,3.3c-0.2,1.9,0.9,2.8,2.1,3.3c1.5,0.5,3.8,0.5,4.6,1.3c0.6,0.6,0.5,1.5,0,2c-0.3,0.3-1.1,0.5-1.9,0.6
		c-0.8,0-1.7-0.2-2.2-0.7c-0.4-0.4-0.5-0.9-0.5-1.2H11c0.1,1.1,0.6,2.3,1.6,3C13.5,101.3,14.9,101.5,15.5,101.5z"/>
	<path class="st1" d="M27.3,122.9c0-1-0.7-1.3-1.5-1.3h-2.9v2.7h2.7C26.7,124.2,27.3,123.8,27.3,122.9z"/>
	<path class="st2" d="M29,61.6c-0.8,0.7-1.2,2-1.2,3.3c0,1,0.2,1.9,0.7,2.6l1.3-6.4C29.5,61.2,29.2,61.4,29,61.6z"/>
	<path class="st2" d="M27.9,70.2c-0.2-0.2-0.5-0.4-0.7-0.6c-1.1-1.1-1.7-2.9-1.7-4.7c0-1.8,0.6-3.5,1.7-4.7c0.8-0.8,1.9-1.3,3-1.4
		L42.4,0C29.3,25.8,17.4,43.4,0,52.7l12.8,90.9L27.9,70.2z M7.9,67.9v-1.3h2.4v1.2c0,0.4,0,1.6,1.4,1.5c1-0.1,1.3-0.8,1.3-1.3v-8.8
		h2.4v9c0,0.7-0.2,1.4-0.8,2.1c-0.7,0.7-1.7,1.1-2.6,1.1c-1,0.1-1.9-0.1-2.4-0.4C8.3,70.2,8,68.9,7.9,67.9z M11,97.6h2.4
		c0,0.3,0.1,0.8,0.5,1.2c0.5,0.5,1.4,0.7,2.2,0.7c0.8,0,1.6-0.3,1.9-0.6c0.5-0.5,0.6-1.4,0-2c-0.8-0.8-3.1-0.8-4.6-1.3
		c-1.3-0.4-2.3-1.4-2.1-3.3c0.2-1.9,1.5-3.3,4.4-3.3c0.6,0,2.8,0,4,1.5c0.6,0.8,0.8,1.9,0.7,2.3H18c0-0.9-0.8-1.8-2.4-1.9
		c-1.2,0-2,0.4-2.1,1.3c-0.1,0.8,0.2,1,0.8,1.2c0.3,0.3,2.5,0.6,3,0.7c0.6,0.1,2,0.4,2.8,1.2c1.4,1.4,0.7,4.2-0.7,5.2
		c-1,0.6-2.4,0.8-3.7,0.8c-0.6,0-2-0.2-2.9-0.8C11.6,99.9,11.1,98.7,11,97.6z"/>
	<path class="st2" d="M29.6,122.6c0-0.5-0.2-3.1-4.2-3.1h-4.9v11.8h5.3c0.7,0,2-0.1,2.8-0.8c1.1-0.9,1.2-1.9,1.2-2.5
		c0-1.4-0.7-2.4-1.4-3C29.3,124.3,29.6,123.3,29.6,122.6z M22.9,121.5h2.9c0.8,0,1.5,0.3,1.5,1.3c0,0.9-0.6,1.3-1.6,1.3h-2.7V121.5z
		 M25.7,129.3h-2.8v-3h3.3c0.5,0,1.4,0.1,1.4,1.4C27.6,129.2,26.5,129.3,25.7,129.3z"/>
	<path class="st2" d="M39.8,131.3c0.6,0.2,1.4,0.4,2.3,0.4c0.8,0,1.7-0.2,2.4-0.5c1.9-1,2.2-2.5,2.2-3.5v-8.1h-2.4v8.1
		c0,0.7-0.3,1.9-2.3,1.9c-2,0-2.2-1.1-2.2-1.9v-8.1h-2.4v8.1C37.4,128.8,37.9,130.2,39.8,131.3z"/>
	<polygon class="st2" points="12.7,144 3.7,163.6 81,163.6 72.1,144 	"/>
	<path class="st2" d="M31.1,60.8c0.8,0,1.5,0.2,2.2,0.8c0.8,0.7,1.2,2,1.2,3.3c0,1.3-0.4,2.6-1.2,3.3c-0.6,0.6-1.4,0.8-2.2,0.8
		c-0.8,0-1.5-0.2-2.2-0.8c-0.2-0.2-0.4-0.4-0.5-0.6l-0.5,2.6c0.9,0.6,2,0.9,3.2,0.9c1.5,0,2.9-0.4,3.9-1.5c1.1-1.1,1.7-2.9,1.7-4.7
		c0-1.8-0.6-3.5-1.7-4.7c-1-1-2.4-1.5-3.9-1.5c-0.3,0-0.6,0-0.9,0.1l-0.5,2.3C30.2,60.9,30.7,60.8,31.1,60.8z"/>
	<polygon class="st2" points="30.9,89.4 30.9,101.1 33.4,101.1 33.4,96.1 38,96.1 38,101.1 40.5,101.1 40.5,89.4 38,89.4 38,94.1 
		33.4,94.1 33.4,89.4 	"/>
	<path class="st2" d="M57,58.8v11.8h-0.1L72,143.7l12.8-90.9C67.3,43.4,55.5,25.8,42.4,0l12.1,58.8H57z M68.9,60.4
		c1-1,2.4-1.5,3.9-1.5c1.5,0,2.9,0.5,3.9,1.5c1.1,1.2,1.7,2.9,1.7,4.7c0,1.8-0.6,3.6-1.7,4.7c-1,1-2.4,1.5-3.9,1.5
		c-1.5,0-2.9-0.5-3.9-1.5c-1.1-1.1-1.7-2.9-1.7-4.7C67.2,63.3,67.8,61.5,68.9,60.4z M65.1,89.4h2.6l4.5,6.4v-6.4h2.4l0,11.8h-1.3
		l-5.9-8.2v8.2h-2.4L65.1,89.4L65.1,89.4z"/>
	<polygon class="st2" points="53.2,58.8 51.3,65.9 49.4,58.8 45.6,58.8 45.6,70.6 48,70.6 48,62 50.7,70.6 52,70.6 54.6,62 
		54.6,70.6 56.9,70.6 54.5,58.8 	"/>
	<path class="st2" d="M72.8,69.1c0.8,0,1.5-0.2,2.2-0.8c0.8-0.7,1.2-2,1.2-3.3c0-1.3-0.4-2.6-1.2-3.3c-0.6-0.6-1.4-0.8-2.2-0.8
		c-0.8,0-1.5,0.2-2.2,0.8c-0.8,0.7-1.2,2-1.2,3.3c0,1.3,0.4,2.5,1.2,3.3C71.3,68.9,72.1,69.1,72.8,69.1z"/>
	<polygon class="st2" points="57.3,119.5 54.7,119.5 54.7,131.3 57.1,131.3 57.1,123.1 63,131.3 64.3,131.3 64.3,119.5 61.9,119.5 
		61.9,125.9 	"/>
	<rect x="51.1" y="89.4" class="st2" width="2.4" height="11.8"/>
</g>
</svg>
