<?xml version="1.0" encoding="utf-8"?>
<!-- Generator: Adobe Illustrator 15.1.0, SVG Export Plug-In . SVG Version: 6.00 Build 0)  -->
<!DOCTYPE svg PUBLIC "-//W3C//DTD SVG 1.1//EN" "http://www.w3.org/Graphics/SVG/1.1/DTD/svg11.dtd">
<svg version="1.1" id="レイヤー_1" xmlns="http://www.w3.org/2000/svg" xmlns:xlink="http://www.w3.org/1999/xlink" x="0px"
	 y="0px" width="600px" height="213px" viewBox="0 0 600 213" enable-background="new 0 0 600 213" xml:space="preserve">
<path fill="#FFF100" d="M524.401,48.799L506.02,22.625c-1.791-2.552-5.809-4.64-8.928-4.64H92.689
	C80.893,4.594,62.605-2.513,43.745,0.813C14.959,5.89-4.263,33.34,0.812,62.128c5.076,28.786,32.528,48.011,61.314,42.934
	c12.306-2.17,22.854-8.438,30.514-17.143h404.452c3.119,0,7.164-2.068,8.986-4.597l18.262-25.288
	C526.166,55.507,526.194,51.351,524.401,48.799z"/>
<g>
	<g>
		<g>
			<path fill="#FFFFFF" d="M45.056,208.947v3.777h-1.511v-23.492c-2.017,4.281-4.583,8.358-7.705,12.236l-1.208-0.906
				c5.438-6.697,9.392-14.604,11.859-23.721H37.88v-1.511h8.989c0.904-3.675,1.586-7.578,2.04-11.708H35.991v-1.512h13.144
				c0.302-3.475,0.453-7.127,0.453-10.952H38.635v-1.513H67.34v12.465h4.155v1.512H67.34v13.219H48.077
				c-1.01,3.678-2.065,6.825-3.174,9.442h22.812v26.438h-1.511v-3.775H45.056L45.056,208.947z M66.207,207.438v-19.641H45.056
				v19.641H66.207z M48.455,175.333h17.374v-11.708H50.495C50.041,167.755,49.361,171.658,48.455,175.333z M65.829,151.161h-14.73
				c0,3.827-0.149,7.479-0.453,10.952H65.83L65.829,151.161L65.829,151.161z M105.486,193.085v1.511H88.868v18.885h-1.513v-18.885
				H69.983v-1.511h17.374v-16.241H71.872v-1.511h15.483v-15.485H70.739v-1.511h22.588c2.014-4.33,3.7-8.435,5.061-12.312l1.36,0.453
				c-1.36,3.828-2.946,7.778-4.761,11.857h9.744v1.512H88.868v15.484h14.729v1.512H88.868v16.24L105.486,193.085L105.486,193.085z
				 M76.857,146.553l1.36-0.604c1.812,3.826,3.324,7.354,4.532,10.574l-1.36,0.604C79.929,153.251,78.418,149.727,76.857,146.553z"
				/>
			<path fill="#FFFFFF" d="M115.76,211.214c2.971-5.438,5.488-11.305,7.554-17.601l1.36,0.453
				c-2.266,6.85-4.785,12.815-7.554,17.902L115.76,211.214z M123.238,188.553V149.65h53.257v1.511h-26.816v10.575h24.55v1.511
				h-24.55V174.2h24.55v1.511h-24.55v11.331h30.216v0.755c0,9.064-0.642,15.424-1.926,19.074s-3.539,5.477-6.761,5.477
				c-2.821,0-6.245-0.252-10.273-0.756l0.151-1.511c4.632,0.503,8.007,0.756,10.122,0.756c1.058,0,1.938-0.215,2.644-0.644
				c0.705-0.428,1.438-1.334,2.191-2.719c0.754-1.386,1.333-3.664,1.735-6.836c0.402-3.175,0.604-7.201,0.604-12.088
				L123.238,188.553L123.238,188.553z M148.166,161.736v-10.575h-23.417v10.575H148.166z M148.166,163.247h-23.417V174.2h23.417
				V163.247z M148.166,175.711h-23.417v11.331h23.417V175.711z M133.813,194.369l1.513-0.303c1.309,5.338,2.314,10.524,3.021,15.562
				l-1.511,0.151C136.129,204.895,135.123,199.758,133.813,194.369z M148.241,193.538l1.358-0.528
				c2.064,5.237,3.602,9.594,4.608,13.067l-1.513,0.454C151.438,202.251,149.953,197.919,148.241,193.538z M162.594,193.085
				l1.359-0.756c2.365,3.879,4.381,7.403,6.043,10.575l-1.36,0.756C166.874,200.389,164.86,196.861,162.594,193.085z"/>
			<path fill="#FFFFFF" d="M227.104,153.428h-14.729v21.528h11.708v1.511h-11.708v27.27c6.294-1.861,11.104-3.5,14.428-4.908
				l0.604,1.357c-7.504,3.226-18.885,6.522-34.144,9.896l-0.302-1.512c0.453-0.102,1.46-0.327,3.021-0.68
				c1.562-0.354,2.744-0.629,3.55-0.83V166.27h1.513v40.412c1.511-0.352,4.784-1.207,9.818-2.566v-50.688h-16.239v-1.512h32.479
				L227.104,153.428L227.104,153.428z M234.656,163.7l1.512-0.15c1.511,12.388,4.606,22.233,9.292,29.535
				c6.244-8.157,10.046-19.489,11.406-33.991H235.11c-2.519,7.905-5.464,14.83-8.838,20.771l-1.357-0.756
				c5.438-9.467,9.44-20.471,12.01-33.01l1.511,0.303c-0.706,3.475-1.662,7.201-2.87,11.18h28.933v1.512h-6.119
				c-1.36,15.157-5.363,26.941-12.011,35.352c4.129,5.943,10.047,11.33,17.751,16.166l-0.757,1.207
				c-7.854-4.934-13.85-10.32-17.978-16.164c-5.439,6.496-13.321,11.908-23.646,16.24l-0.604-1.358
				c10.123-4.229,17.903-9.618,23.342-16.165C239.441,186.715,236.168,176.492,234.656,163.7z"/>
			<path fill="#FFFFFF" d="M297.43,168.006l1.36-0.604c2.517,6.193,4.431,12.312,5.739,18.354l-1.511,0.304
				c-0.653-2.668-1.058-4.33-1.209-4.986l-11.632,0.605v31.801h-1.511v-31.728l-14.277,0.756l-0.151-1.511l4.91-0.229
				c1.007-1.105,3.021-3.522,6.043-7.252c-3.676-6.496-6.874-11.936-9.593-16.314l1.208-0.756c0.201,0.354,0.529,0.882,0.982,1.586
				c0.454,0.707,0.869,1.373,1.247,2.003s0.741,1.222,1.095,1.772c2.871-3.978,6.119-9.037,9.745-15.183l1.358,0.755
				c-2.972,5.087-6.396,10.35-10.271,15.788c3.122,5.338,4.884,8.358,5.288,9.063c4.731-6.043,9.089-12.312,13.066-18.811
				l1.359,0.758c-5.59,9.113-12.061,17.928-19.413,26.438l20.169-1.059C300.376,175.889,299.041,172.036,297.43,168.006z
				 M275.146,208.344c2.618-6.949,4.23-14.074,4.834-21.377l1.513,0.15c-0.604,7.051-2.268,14.277-4.985,21.68L275.146,208.344z
				 M296.977,186.814l1.511-0.303c1.409,5.641,2.417,11.457,3.021,17.449l-1.511,0.148
				C299.443,198.625,298.437,192.857,296.977,186.814z M324.17,209.326h18.885v1.511h-41.924v-1.511h21.527v-18.131h-16.994v-1.51
				h16.994v-11.709h1.512v11.709h16.617v1.51H324.17V209.326z M308.836,155.014l1.209-0.906c4.129,5.791,8.938,10.953,14.428,15.486
				c5.992-4.634,10.751-10.652,14.277-18.055h-35.354v-1.512h37.014v1.512c-3.523,7.705-8.436,14.05-14.729,19.035
				c5.236,4.181,10.877,7.681,16.92,10.5l-0.604,1.359c-6.245-2.92-12.087-6.547-17.524-10.877
				c-4.734,3.523-10.803,6.646-18.205,9.364l-0.453-1.358c6.848-2.467,12.664-5.463,17.449-8.988
				C317.724,165.941,312.913,160.755,308.836,155.014z"/>
			<path fill="#FFFFFF" d="M353.48,209.93c4.834-4.834,8.309-10.271,10.424-16.314l1.359,0.453
				c-2.268,6.396-5.842,12.035-10.729,16.92L353.48,209.93z M372.287,154.637l1.209-0.906c1.059,1.512,2.393,3.602,4.005,6.271
				c2.616-1.511,4.935-3.146,6.948-4.91l1.059,1.209c-2.316,2.065-5.391,4.104-9.215,6.118c2.566,2.016,4.594,4.568,6.078,7.667
				s2.229,6.356,2.229,9.782c0,3.626-0.365,6.044-1.096,7.252c-0.73,1.209-2.379,1.812-4.947,1.812
				c-1.662,0-4.457-0.125-8.385-0.379l0.148-1.511c3.931,0.252,6.673,0.378,8.234,0.378c1.913,0,3.146-0.391,3.701-1.171
				c0.554-0.78,0.831-2.908,0.831-6.384c0-1.258-0.126-2.594-0.378-4.004c-6.347,5.037-15.334,9.141-26.969,12.312l-0.453-1.511
				c11.835-3.174,20.851-7.327,27.045-12.465c-0.453-1.711-1.285-3.574-2.493-5.59c-5.741,4.229-13.774,7.73-24.099,10.5
				l-0.453-1.512c10.373-2.818,18.28-6.244,23.721-10.271c-1.261-1.662-2.67-3.047-4.23-4.154
				c-5.338,2.619-11.684,4.91-19.035,6.874l-0.451-1.511c4.129-1.107,7.325-2.064,9.594-2.871c-1.613-3.021-3.174-5.688-4.686-8.008
				l1.209-0.905c1.512,2.267,3.146,5.062,4.909,8.385c3.878-1.46,7.177-2.92,9.896-4.381
				C374.906,158.438,373.598,156.398,372.287,154.637z M356.953,153.805c11.481-1.662,20.22-3.9,26.211-6.723l0.605,1.359
				c-6.246,2.922-15.135,5.213-26.666,6.873L356.953,153.805z M373.648,192.329h1.511v10.575c0,1.562,0,2.645,0,3.248
				s0.063,1.285,0.188,2.039c0.125,0.756,0.239,1.222,0.34,1.396c0.102,0.178,0.391,0.391,0.869,0.645
				c0.479,0.25,0.894,0.39,1.246,0.414c0.352,0.024,1.008,0.088,1.965,0.188c3.021,0.251,6.143,0.377,9.367,0.377
				c3.121,0,6.243-0.126,9.364-0.377c1.661-0.149,2.819-0.253,3.477-0.304c0.653-0.051,1.396-0.266,2.229-0.643
				c0.831-0.377,1.349-0.691,1.55-0.943c0.199-0.254,0.479-0.92,0.831-2.002s0.565-2.063,0.643-2.945
				c0.075-0.88,0.214-2.404,0.415-4.568l1.512,0.149c-0.203,2.217-0.367,3.864-0.492,4.946c-0.125,1.084-0.377,2.181-0.755,3.287
				c-0.378,1.105-0.718,1.852-1.02,2.229c-0.303,0.378-0.896,0.77-1.775,1.171c-0.882,0.401-1.751,0.654-2.604,0.757
				c-0.856,0.102-2.143,0.227-3.854,0.379c-3.173,0.25-6.346,0.377-9.518,0.377c-3.227,0-6.396-0.127-9.521-0.377
				c-2.819-0.254-4.521-0.857-5.099-1.813c-0.58-0.957-0.869-3.499-0.869-7.63V192.329z M381.956,192.254l0.757-1.359
				c5.338,3.072,10.396,6.623,15.184,10.65l-0.906,1.209C392.508,198.928,387.495,195.428,381.956,192.254z M407.865,179.262
				c3.979,3.576,8.639,6.32,13.977,8.233l-0.453,1.358c-5.188-1.812-9.771-4.418-13.748-7.817
				c-3.979-3.397-7.025-7.313-9.141-11.746h-7.855v16.996c5.137-1.106,10.223-2.492,15.26-4.154l0.453,1.511
				c-7.052,2.317-14.252,4.08-21.604,5.289l-0.304-1.512c1.208-0.15,2.771-0.428,4.686-0.831v-37.694h28.704v20.396h-17.679
				c1.562,3.072,3.753,6.02,6.572,8.838c4.885-2.467,9.291-5.59,13.219-9.365l1.061,1.057
				C417.184,173.496,412.803,176.645,407.865,179.262z M390.645,158.337h25.684v-7.933h-25.684V158.337z M416.326,167.779v-7.932
				h-25.684v7.932H416.326z M409.303,192.404l1.209-0.905c4.479,5.942,8.283,12.036,11.406,18.28l-1.359,0.604
				C417.586,204.441,413.834,198.447,409.303,192.404z"/>
			<path fill="#FFFFFF" d="M434.455,161.357v-1.51h26.438v1.51H434.455z M436.723,151.161v-1.511h22.662v1.511H436.723z
				 M438.234,210.081v3.776h-1.512v-22.283h22.662v18.507H438.234z M437.102,171.936v-1.512h21.906v1.512H437.102z M437.102,182.51
				v-1.511h21.906v1.511H437.102z M438.234,208.57h19.64v-15.485h-19.64V208.57z M497.684,148.518l0.453,1.512
				c-5.037,1.461-10.273,2.693-15.713,3.701v14.807h17.752v1.511h-17.752v13.22h15.484v29.461h-1.512v-4.533h-29.46v4.533h-1.511
				v-29.461h15.484v-13.22h-18.508v-1.511h18.508v-14.504c-5.541,1.008-11.181,1.688-16.922,2.039l-0.148-1.512
				C475.523,153.755,486.805,151.74,497.684,148.518z M496.398,206.682v-21.906h-29.46v21.906H496.398z"/>
			<path fill="#FFFFFF" d="M547.236,146.251c9.567,8.36,20.571,15.938,33.01,22.737l-0.755,1.359
				c-12.036-6.548-23.112-14.201-33.235-22.966c-10.122,8.765-21.201,16.418-33.236,22.966l-0.756-1.359
				c12.438-6.799,23.439-14.377,33.01-22.737H547.236z M561.513,190.518l1.209-0.906c5.187,7.304,10.222,14.882,15.105,22.736
				l-1.208,0.756c-0.604-0.957-2.293-3.576-5.062-7.854c-18.885,3.271-37.142,5.263-54.767,5.967v-1.511
				c2.164-0.104,5.768-0.303,10.803-0.604c3.775-7.904,7.126-16.266,10.047-25.078h-22.359v-1.512h61.941v1.512h-37.996
				c-3.223,9.519-6.521,17.854-9.896,25.004c13.145-0.957,26.916-2.67,41.319-5.137
				C568.186,200.161,565.139,195.704,561.513,190.518z M525.104,170.424v-1.511h42.301v1.511H525.104z"/>
		</g>
	</g>
</g>
<g>
	<g>
		<path fill="#FFFFFF" d="M53.891,126.717c-1.616-0.748-2.79-1.123-3.521-1.123c-0.579,0-1.004,0.195-1.276,0.586
			c-0.272,0.395-0.408,1.047-0.408,1.965h-1.709c0-2.84,1.046-4.26,3.14-4.26c1.121,0,2.702,0.477,4.743,1.428
			c1.616,0.75,2.79,1.123,3.521,1.123c0.578,0,1.003-0.183,1.273-0.549c0.272-0.365,0.408-0.947,0.408-1.748h1.709
			c0,2.672-1.046,4.006-3.138,4.006C57.514,128.145,55.932,127.669,53.891,126.717z"/>
		<path fill="#FFFFFF" d="M74.887,124.318c-1.378-1.328-2.9-2.611-4.567-3.854l1.123-1.378c1.805,1.346,3.344,2.619,4.618,3.827
			L74.887,124.318z M76.647,127.559c-1.004,3.045-2.339,5.74-4.005,8.086l-1.605-1.045c1.633-2.348,2.94-4.916,3.929-7.705
			L76.647,127.559z M71.724,114.854l1.148-1.377c1.463,1.104,2.849,2.271,4.157,3.494l-1.174,1.377
			C74.581,117.158,73.203,115.992,71.724,114.854z M75.882,135.619l-0.23-1.658c1.261-0.17,2.203-0.307,2.832-0.408v-8.979h1.964
			v2.628h4.541v1.657h-4.541v4.338c1.312-0.256,2.866-0.631,4.67-1.122l0.255,1.633C82.158,134.607,78.995,135.246,75.882,135.619z
			 M80.397,123.629h-1.913v-9.72h14.083v9.72H80.397z M80.397,118.018h10.205v-2.5H80.397V118.018z M80.397,119.471v2.68h10.205
			v-2.68H80.397z M89.888,135.416c-0.51,0-1.14-0.018-1.888-0.051c-0.782-0.035-1.275-0.15-1.479-0.346
			c-0.204-0.197-0.306-0.635-0.306-1.312v-9.135h1.964v3.088c1.718-0.578,3.453-1.344,5.205-2.297l0.74,1.479
			c-2.041,1.105-4.022,1.939-5.944,2.5v3.648c0,0.34,0.025,0.545,0.077,0.611c0.051,0.066,0.229,0.109,0.536,0.127
			c0.236,0.019,0.621,0.025,1.146,0.025c0.527,0,0.929-0.009,1.199-0.025c0.478-0.018,0.765-0.119,0.867-0.307
			c0.17-0.238,0.313-1.25,0.434-3.035c0-0.035,0-0.094,0-0.18l1.786,0.204c-0.051,0.868-0.098,1.515-0.14,1.938
			c-0.043,0.426-0.106,0.857-0.191,1.301s-0.166,0.74-0.243,0.895c-0.074,0.152-0.213,0.307-0.406,0.459
			c-0.195,0.152-0.396,0.246-0.601,0.28s-0.502,0.06-0.893,0.077C90.9,135.398,90.279,135.416,89.888,135.416z"/>
		<path fill="#FFFFFF" d="M100.526,124.318c-1.377-1.328-2.898-2.611-4.564-3.854l1.123-1.378c1.802,1.346,3.342,2.619,4.618,3.827
			L100.526,124.318z M102.465,127.404c-1.004,3.062-2.373,5.809-4.107,8.24l-1.582-1.045c1.649-2.33,2.985-4.959,4.005-7.885
			L102.465,127.404z M97.133,114.854l1.146-1.377c1.549,1.172,2.942,2.338,4.186,3.494l-1.173,1.377
			C100.101,117.227,98.715,116.061,97.133,114.854z M117.772,128.809l1.914,0.356c-0.051,0.868-0.089,1.544-0.115,2.028
			c-0.023,0.482-0.085,0.986-0.178,1.506c-0.094,0.52-0.179,0.9-0.255,1.146c-0.077,0.245-0.221,0.496-0.434,0.754
			c-0.213,0.254-0.413,0.42-0.602,0.496c-0.188,0.076-0.479,0.156-0.88,0.241c-0.398,0.085-0.787,0.134-1.161,0.142
			c-0.374,0.01-0.893,0.014-1.556,0.014c-0.953,0-1.685-0.018-2.194-0.051c-0.51-0.035-0.97-0.094-1.378-0.18
			s-0.685-0.234-0.829-0.445c-0.145-0.213-0.251-0.459-0.317-0.74c-0.068-0.281-0.104-0.686-0.104-1.213v-4.541h-3.725v2.936h-1.89
			V119.98h1.89v6.633h3.725v-8.571c-1.956,0.237-4.048,0.392-6.274,0.46l-0.229-1.762c2.398-0.084,4.566-0.246,6.505-0.484v-3.086
			h2.018v2.807c2.481-0.375,4.668-0.867,6.557-1.479l0.459,1.732c-2.007,0.664-4.346,1.185-7.016,1.559v8.827h4.464v-6.966h1.914
			v8.675h-6.378v4.284c0,0.309,0.013,0.521,0.036,0.64c0.025,0.119,0.149,0.229,0.37,0.331c0.223,0.104,0.512,0.156,0.867,0.166
			c0.357,0.01,0.953,0.014,1.786,0.014c0.425,0,0.731,0,0.918,0c0.188,0,0.412-0.033,0.676-0.103
			c0.266-0.067,0.438-0.118,0.523-0.153c0.085-0.033,0.195-0.166,0.332-0.396c0.136-0.229,0.217-0.412,0.243-0.549
			c0.024-0.137,0.066-0.44,0.127-0.918c0.06-0.477,0.098-0.877,0.113-1.199C117.712,130.117,117.738,129.572,117.772,128.809z"/>
		<path fill="#FFFFFF" d="M135.784,132.559c2.041-0.221,3.631-1.027,4.771-2.424c1.14-1.395,1.709-3.248,1.709-5.562
			c0-2.158-0.714-3.945-2.143-5.356c-1.431-1.411-3.259-2.151-5.485-2.22c-0.357,3.3-0.804,6.089-1.339,8.367
			c-0.536,2.279-1.127,4.002-1.773,5.166c-0.646,1.166-1.292,1.98-1.938,2.449c-0.647,0.469-1.354,0.701-2.118,0.701
			c-1.225,0-2.352-0.738-3.38-2.221c-1.029-1.479-1.543-3.291-1.543-5.436c0-3.195,1.093-5.799,3.276-7.807
			c2.187-2.007,5.03-3.01,8.534-3.01c2.823,0,5.157,0.879,7.003,2.641c1.847,1.76,2.77,4,2.77,6.723
			c0,2.822-0.714,5.105-2.145,6.851c-1.429,1.744-3.366,2.72-5.814,2.921L135.784,132.559z M132.697,117.098
			c-2.518,0.309-4.526,1.27-6.032,2.883c-1.505,1.617-2.26,3.633-2.26,6.047c0,1.601,0.342,2.959,1.021,4.082
			s1.36,1.686,2.041,1.686c0.306,0,0.625-0.113,0.957-0.344s0.702-0.678,1.11-1.342c0.406-0.662,0.791-1.514,1.146-2.551
			c0.357-1.037,0.718-2.457,1.084-4.262C132.131,121.495,132.441,119.428,132.697,117.098z"/>
		<path fill="#FFFFFF" d="M149.84,133.578v1.633h-1.888v-20.919h7.116v19.286H149.84z M149.84,122.66h3.393v-6.633h-3.393V122.66z
			 M149.84,124.369v7.525h3.393v-7.525H149.84z M170.403,122.148h-2.5v2.856h2.5v1.685h-2.5v5.611c0,1.549-0.16,2.506-0.483,2.871
			s-1.165,0.549-2.525,0.549c-0.494,0-1.573-0.041-3.24-0.129l-0.074-1.709c1.562,0.086,2.566,0.127,3.01,0.127
			c0.663,0,1.05-0.07,1.161-0.217c0.108-0.145,0.166-0.625,0.166-1.439v-5.664h-10.077v-1.685h10.077v-2.856h-10.077v-1.709h6.378
			v-3.395h-5.23v-1.656h5.23v-2.729h1.99v2.729h5.279v1.656h-5.279v3.395h6.198v1.709H170.403z M157.111,128.73l1.303-1.274
			c1.562,1.327,2.976,2.737,4.233,4.235l-1.352,1.25C159.918,131.325,158.523,129.922,157.111,128.73z"/>
		<path fill="#FFFFFF" d="M177.521,120.439v15.537h-1.965V123.68c-0.765,1.275-1.53,2.365-2.296,3.266l-1.021-1.811
			c2.789-3.352,4.722-7.365,5.792-12.041l1.89,0.434C179.375,116.129,178.575,118.434,177.521,120.439z M185.812,113.066h1.939
			c0,2.076,0.093,4.064,0.28,5.971l7.704-0.689l0.127,1.735l-7.628,0.688c0.223,1.668,0.521,3.234,0.895,4.707
			c0.374,1.472,0.752,2.688,1.135,3.646c0.382,0.961,0.773,1.79,1.173,2.486c0.4,0.697,0.744,1.203,1.033,1.52
			c0.289,0.312,0.519,0.473,0.689,0.473c0.202,0,0.378-0.123,0.521-0.369c0.145-0.246,0.297-0.725,0.459-1.43
			s0.328-1.68,0.498-2.922l1.658,0.586c-0.478,4.236-1.479,6.354-3.01,6.354c-0.408,0-0.859-0.157-1.354-0.473
			c-0.494-0.313-1.029-0.852-1.605-1.606c-0.578-0.757-1.123-1.685-1.635-2.78c-0.51-1.096-0.989-2.513-1.439-4.247
			c-0.451-1.733-0.795-3.655-1.033-5.767l-7.322,0.662l-0.127-1.733l7.271-0.663C185.889,117.346,185.812,115.295,185.812,113.066z
			 M189.409,114.088l1.25-1.225c1.599,1.242,3.025,2.509,4.284,3.801l-1.325,1.174C192.207,116.393,190.804,115.143,189.409,114.088
			z"/>
		<path fill="#FFFFFF" d="M218.391,134.268c-2.022,0.34-4.158,0.51-6.403,0.51c-3.111,0-5.36-0.359-6.746-1.084
			c-1.388-0.723-2.079-1.864-2.079-3.432c0-2.703,2.56-4.779,7.679-6.225c-0.239-0.781-0.558-1.326-0.957-1.633
			c-0.4-0.307-0.915-0.459-1.543-0.459c-1.021,0-2.173,0.494-3.457,1.479c-1.285,0.987-2.581,2.407-3.891,4.262l-1.558-0.996
			c2.092-2.906,3.801-5.851,5.127-8.826h-4.975v-1.633h5.664c0.391-0.953,0.772-1.99,1.146-3.111l1.837,0.434
			c-0.34,0.901-0.68,1.797-1.021,2.68h11.072v1.633h-11.763c-0.562,1.275-1.183,2.595-1.861,3.955l0.024,0.025
			c1.479-1.021,2.808-1.531,3.979-1.531c2.007,0,3.342,1.09,4.005,3.267c1.718-0.392,3.665-0.724,5.842-0.995l0.179,1.658
			c-2.312,0.306-4.199,0.63-5.664,0.97c0.223,1.274,0.332,2.935,0.332,4.976H211.4c0-1.838-0.077-3.334-0.229-4.489
			c-4.048,1.174-6.072,2.646-6.072,4.413c0,0.459,0.085,0.852,0.255,1.175c0.17,0.321,0.485,0.633,0.944,0.931
			c0.459,0.299,1.165,0.521,2.118,0.678c0.952,0.151,2.143,0.229,3.57,0.229c1.89,0,3.964-0.188,6.227-0.562L218.391,134.268z"/>
		<path fill="#FFFFFF" d="M223.901,119.268v-1.711h8.727v1.711H223.901z M224.615,115.645v-1.658h7.397v1.658H224.615z
			 M226.401,134.982v1.121h-1.784v-7.627h7.448v6.506H226.401z M224.794,122.863v-1.607h7.144v1.607H224.794z M224.794,126.486
			v-1.633h7.144v1.633H224.794z M226.401,133.375h3.954v-3.266h-3.954V133.375z M236.887,125.543h1.913
			c0,2.993-0.404,5.268-1.211,6.824c-0.81,1.557-2.13,2.742-3.967,3.559l-1.021-1.531c1.547-0.695,2.649-1.689,3.304-2.982
			C236.56,130.118,236.887,128.162,236.887,125.543z M246.658,114.904v1.633h-5.996v2.449h5.052v1.582h-12.042v-1.582h4.975v-2.449
			h-5.434v-1.633h5.434v-2.016h2.017v2.016H246.658z M246.224,122.48v5.104h-1.863v-3.521h-9.284v3.775h-1.862v-5.357H246.224
			L246.224,122.48z M240.406,125.543h1.913v7.5c0,0.441,0.057,0.701,0.166,0.777c0.11,0.076,0.489,0.115,1.137,0.115
			c0.61,0,0.98-0.184,1.108-0.551c0.127-0.363,0.218-1.56,0.27-3.584l1.786,0.258c-0.034,1.004-0.064,1.76-0.091,2.27
			c-0.023,0.511-0.085,1.013-0.179,1.506s-0.195,0.829-0.306,1.008c-0.111,0.178-0.308,0.344-0.586,0.497
			c-0.281,0.153-0.566,0.238-0.855,0.255c-0.289,0.018-0.714,0.025-1.273,0.025c-1.412,0-2.279-0.127-2.604-0.383
			c-0.323-0.254-0.483-0.961-0.483-2.117v-7.576H240.406z"/>
		<path fill="#FFFFFF" d="M255.229,134.344c-1.225,0-2.415-0.65-3.57-1.951c-1.157-1.301-1.735-2.717-1.735-4.248
			c0-1.443,0.795-2.707,2.386-3.787c1.59-1.08,3.729-1.68,6.416-1.799c0.306-2.279,0.544-4.27,0.714-5.971h-7.679v-1.709h9.593
			v1.709c-0.222,2.16-0.451,4.15-0.688,5.971c1.888,0.067,3.774,0.393,5.664,0.969c0.066-1.582,0.102-3.782,0.102-6.605h1.862
			c0,3.182-0.042,5.587-0.127,7.221c1.462,0.545,2.897,1.268,4.312,2.17l-0.868,1.556c-1.123-0.697-2.312-1.31-3.569-1.837
			c-0.12,1.496-0.304,2.734-0.551,3.712c-0.246,0.978-0.61,1.808-1.097,2.487c-0.484,0.681-1.008,1.229-1.568,1.646
			c-0.562,0.417-1.336,0.88-2.32,1.392l-0.971-1.582c0.696-0.355,1.25-0.668,1.657-0.932c0.408-0.264,0.812-0.6,1.212-1.008
			c0.4-0.408,0.706-0.889,0.918-1.441c0.213-0.552,0.396-1.229,0.549-2.027c0.152-0.801,0.271-1.77,0.356-2.908
			c-2.007-0.646-3.946-1.002-5.816-1.07c-0.322,2.107-0.667,3.835-1.032,5.18c-0.366,1.344-0.767,2.367-1.199,3.072
			c-0.435,0.707-0.876,1.186-1.327,1.432C256.398,134.221,255.858,134.344,255.229,134.344z M258.47,124.318
			c-2.041,0.119-3.648,0.549-4.822,1.287s-1.761,1.586-1.761,2.539c0,0.984,0.383,1.955,1.148,2.906
			c0.765,0.953,1.494,1.432,2.192,1.432c0.408,0,0.778-0.219,1.11-0.651s0.685-1.271,1.059-2.513
			C257.772,128.077,258.129,126.41,258.47,124.318z"/>
		<path fill="#FFFFFF" d="M283.803,132.559v-2.756h-6.276c-0.221,2.416-0.646,4.447-1.274,6.098l-1.658-1.174
			c0.459-1.188,0.791-2.604,0.995-4.248c0.204-1.641,0.306-4.119,0.306-7.436v-2.041l-1.274-0.842
			c1.648-2.297,2.832-4.907,3.546-7.832l1.888,0.203c-0.204,0.816-0.34,1.344-0.408,1.582h4.133v1.607
			c-0.341,0.865-0.705,1.709-1.097,2.523h2.883v14.234c0,1.463-0.109,2.367-0.332,2.719c-0.221,0.348-0.772,0.521-1.656,0.521
			c-0.768,0-1.812-0.043-3.14-0.129l-0.051-1.658c1.445,0.086,2.279,0.129,2.5,0.129c0.459,0,0.727-0.062,0.804-0.19
			C283.764,133.744,283.803,133.307,283.803,132.559z M277.731,124.752c0,0.9-0.034,2.049-0.102,3.443h2.271v-3.443H277.731z
			 M277.731,123.17h2.168v-3.266h-2.168V123.17z M280.665,118.246c0.525-1.055,0.918-1.896,1.174-2.525h-2.755
			c-0.308,0.799-0.683,1.641-1.123,2.525H280.665z M281.558,123.17h2.245v-3.266h-2.245V123.17z M281.558,124.752v3.443h2.245
			v-3.443H281.558z M293.727,129.089h4.337v1.685h-4.337v5.104h-1.964v-5.104h-5.434v-1.685h5.434v-3.495h-2.704
			c-0.477,1.156-0.97,2.16-1.479,3.01l-1.709-0.814c1.104-1.818,1.913-3.715,2.423-5.688l1.761,0.459
			c-0.035,0.104-0.073,0.248-0.115,0.435c-0.042,0.188-0.085,0.356-0.127,0.511c-0.042,0.152-0.089,0.297-0.14,0.434h2.092v-1.861
			h1.964v1.861h3.854v1.658h-3.854v3.493h-0.002V129.089z M290.487,115.594h-4.261v-1.685h11.455
			c-0.085,2.278-0.204,3.916-0.355,4.911c-0.153,0.994-0.389,1.671-0.702,2.027c-0.314,0.355-0.829,0.535-1.543,0.535
			c-0.901,0-2.009-0.043-3.316-0.129l-0.127-1.656c1.071,0.086,1.956,0.127,2.653,0.127c0.34,0,0.591-0.08,0.752-0.242
			c0.162-0.16,0.293-0.53,0.396-1.109c0.104-0.577,0.181-1.504,0.229-2.779h-3.316c-0.204,1.547-0.778,2.926-1.722,4.133
			c-0.944,1.207-2.198,2.168-3.763,2.883l-0.944-1.506C288.539,119.861,290.062,118.025,290.487,115.594z"/>
		<path fill="#FFFFFF" d="M317.656,114.828c-3.469,2.789-6.676,5.145-9.617,7.066c-1.021,0.662-1.661,1.117-1.926,1.363
			s-0.396,0.516-0.396,0.805c0,0.271,0.119,0.521,0.356,0.752c0.237,0.229,0.798,0.649,1.685,1.264
			c3.555,2.416,7.118,5.18,10.688,8.291l-1.377,1.378c-3.504-3.026-6.99-5.739-10.461-8.138c-1.358-0.938-2.219-1.6-2.575-1.99
			s-0.534-0.91-0.534-1.557c0-0.682,0.187-1.222,0.561-1.619c0.374-0.4,1.293-1.076,2.756-2.029c3.18-2.107,6.378-4.447,9.592-7.016
			L317.656,114.828z"/>
		<path fill="#FFFFFF" d="M334.418,120.414h-1.709l1.859-6.301h2.398L334.418,120.414z M339.161,120.414h-1.71l1.891-6.301h2.373
			L339.161,120.414z"/>
		<path fill="#FFFFFF" d="M350.566,124.113v-1.76H356v-0.025v-5.408h-2.094c-0.545,1.734-1.174,3.291-1.888,4.668l-1.606-0.663
			c1.207-2.381,2.136-5.17,2.78-8.368l1.735,0.281c-0.139,0.73-0.315,1.521-0.537,2.373h7.425v1.709h-3.853v5.408v0.025h4.232v1.76
			h-4.336c-0.066,0.527-0.128,0.943-0.18,1.25c1.719,2.586,3.272,5.068,4.67,7.449l-1.582,1.07
			c-1.141-1.973-2.373-4.014-3.699-6.123c-0.545,1.65-1.285,3.146-2.22,4.49c-0.938,1.344-1.999,2.406-3.188,3.188l-1.146-1.557
			c1.496-1.037,2.713-2.402,3.646-4.095c0.937-1.692,1.516-3.584,1.734-5.677h-5.331v0.004H350.566z M372.913,114.674v20.691h-1.911
			v-1.607h-6.123v1.607h-1.863v-20.691H372.913z M364.879,132.048h6.123v-15.639h-6.123V132.048z"/>
		<path fill="#FFFFFF" d="M395.85,135.467c-1.396,0-3.146-0.076-5.256-0.23l-0.051-1.783c2.022,0.152,3.521,0.229,4.488,0.229
			c0.34,0,0.608-0.332,0.806-0.996c0.193-0.662,0.378-2.182,0.549-4.554c0.169-2.372,0.312-5.88,0.434-10.522h-7.524
			c-1.037,2.434-2.213,4.447-3.521,6.047l-0.688-0.663v10.46h-6.71v1.965h-1.913v-19.059h2.807c0.578-1.275,1.02-2.467,1.326-3.57
			l1.888,0.279c-0.323,1.121-0.723,2.221-1.198,3.291h3.803v5.203c1.803-2.531,3.087-5.482,3.852-8.853l1.889,0.255
			c-0.236,1.004-0.52,1.965-0.842,2.883h8.801c-0.066,3.131-0.136,5.746-0.202,7.846c-0.067,2.102-0.161,3.898-0.28,5.396
			s-0.242,2.653-0.369,3.471c-0.129,0.815-0.303,1.449-0.523,1.899s-0.441,0.729-0.664,0.843
			C396.521,135.411,396.224,135.467,395.85,135.467z M378.372,123.986h4.85v-5.92h-4.85V123.986z M378.372,125.645v6.148h4.85
			v-6.148H378.372z M388.527,121.818l1.633-0.896c1.432,2.16,2.654,4.438,3.676,6.837l-1.686,0.768
			C391.077,126.078,389.869,123.842,388.527,121.818z"/>
		<path fill="#FFFFFF" d="M407.279,123.936l1.734-0.867c1.104,2.414,2.396,4.305,3.878,5.664c1.479-1.359,2.771-3.25,3.878-5.664
			l1.785,0.791c-1.122,2.482-2.508,4.508-4.158,6.072c2.126,1.496,5.324,2.805,9.593,3.928l-0.587,1.762
			c-4.541-1.141-8.045-2.618-10.511-4.438c-2.466,1.819-5.97,3.301-10.511,4.438l-0.587-1.762c4.269-1.123,7.466-2.432,9.593-3.928
			C409.771,128.383,408.401,126.385,407.279,123.936z M402.1,115.645h9.771v-3.139h2.041v3.139h9.771v1.734H402.1V115.645z
			 M402.254,123.781c3.01-1.666,5.391-3.631,7.143-5.893l1.352,1.174c-1.783,2.433-4.318,4.531-7.602,6.301L402.254,123.781z
			 M422.329,125.363c-2.229-2.193-4.712-4.242-7.448-6.147l1.123-1.454c2.855,1.973,5.375,4.049,7.552,6.225L422.329,125.363z"/>
		<path fill="#FFFFFF" d="M430.801,124.318c-1.377-1.328-2.9-2.611-4.566-3.854l1.148-1.378c1.717,1.273,3.248,2.553,4.592,3.827
			L430.801,124.318z M432.587,127.559c-0.987,3.01-2.331,5.705-4.031,8.086l-1.581-1.045c1.633-2.348,2.941-4.916,3.928-7.705
			L432.587,127.559z M427.434,114.854l1.146-1.377c1.464,1.104,2.85,2.271,4.158,3.494l-1.174,1.377
			C430.289,117.158,428.911,115.992,427.434,114.854z M435.033,124.701h1.914c0,3.027-0.406,5.445-1.225,7.258
			c-0.816,1.811-2.084,3.186-3.801,4.12l-1.199-1.454c1.496-0.816,2.59-2.012,3.277-3.584
			C434.691,129.467,435.033,127.354,435.033,124.701z M443.43,118.322l1.633-0.867c1.785,2.059,3.393,4.125,4.821,6.199
			l-1.582,0.943c-0.323-0.477-0.782-1.104-1.378-1.889c-4.949,0.629-9.711,1.014-14.286,1.146l-0.077-1.709
			c0.613-0.018,1.564-0.061,2.857-0.129c0.834-1.598,1.648-3.398,2.447-5.408h-4.947v-1.684h7.064v-2.271h2.041v2.271h7.527v1.684
			h-9.596c-0.609,1.582-1.395,3.344-2.347,5.281c2.942-0.203,5.655-0.44,8.14-0.715C445.002,120.211,444.229,119.258,443.43,118.322
			z M439.5,135.492v-10.715h1.912v10.715H439.5z M444.398,124.521h1.914v8.674c0,0.426,0.037,0.677,0.114,0.754
			c0.077,0.076,0.336,0.113,0.776,0.113c0.578,0,0.924-0.203,1.033-0.611c0.11-0.408,0.208-1.838,0.293-4.286l1.686,0.179
			c-0.019,0.731-0.033,1.293-0.053,1.684c-0.018,0.394-0.043,0.834-0.074,1.326c-0.034,0.494-0.064,0.855-0.092,1.086
			c-0.024,0.229-0.074,0.492-0.15,0.791c-0.076,0.297-0.146,0.5-0.205,0.611c-0.061,0.11-0.165,0.242-0.318,0.396
			c-0.15,0.152-0.289,0.246-0.407,0.279c-0.118,0.035-0.303,0.076-0.55,0.127c-0.246,0.053-0.477,0.078-0.688,0.078
			c-0.213,0-0.497,0-0.854,0c-1.069,0-1.744-0.1-2.016-0.295c-0.272-0.195-0.408-0.691-0.408-1.492L444.398,124.521L444.398,124.521
			z"/>
		<path fill="#FFFFFF" d="M452.867,118.527h4.489v-4.594h1.913v4.594h9.185v-4.594h2.018v4.594h4.49v1.785h-4.49v1.633
			c0,4.252-0.896,7.318-2.679,9.197c-1.786,1.879-4.893,3.029-9.312,3.457l-0.331-1.787c3.979-0.408,6.692-1.377,8.138-2.908
			c1.446-1.529,2.17-4.184,2.17-7.959v-1.633h-9.186v5.791h-1.913v-5.791h-4.489L452.867,118.527L452.867,118.527z"/>
		<path fill="#FFFFFF" d="M481.85,133.578h-2.041v-18.012h19.236v18.012H481.85z M481.85,131.768h15.154v-14.389H481.85V131.768z"/>
		<path fill="#FFFFFF" d="M505.933,116.895l0.919-1.733c2.721,1.358,5.322,2.806,7.807,4.337l-0.995,1.732
			C511.316,119.77,508.739,118.322,505.933,116.895z M525.653,117.889c-1.718,9.797-8.002,15.172-18.853,16.123l-0.309-1.912
			c4.982-0.459,8.899-1.893,11.748-4.299c2.851-2.406,4.698-5.847,5.549-10.32L525.653,117.889z"/>
		<path fill="#FFFFFF" d="M537.439,120.414h-1.709l1.862-6.301h2.396L537.439,120.414z M542.186,120.414h-1.71l1.888-6.301h2.373
			L542.186,120.414z"/>
		<path fill="#FFFFFF" d="M547.285,125.109c1.666-2.35,3.835-3.521,6.508-3.521c1.938,0,3.725,0.74,5.355,2.221
			c1.343,1.226,2.704,1.836,4.082,1.836c0.986,0,1.87-0.221,2.652-0.662c0.781-0.441,1.562-1.174,2.348-2.193l1.505,1.25
			c-1.667,2.348-3.835,3.521-6.505,3.521c-1.939,0-3.725-0.74-5.357-2.222c-1.344-1.226-2.703-1.836-4.08-1.836
			c-1.006,0-1.895,0.222-2.666,0.663c-0.774,0.441-1.562,1.184-2.36,2.221L547.285,125.109z"/>
	</g>
</g>
<g>
	<g>
		<path fill="#0099D9" d="M171.56,52.479h-6.746v1.777h6.223v5.089h-6.102c1.562,1.32,3.218,2.801,4.968,4.443
			c1.292-2.611,2.183-5.783,2.666-9.513c0.485-3.729,0.729-9.405,0.729-17.026c5.951-0.485,10.879-1.427,14.784-2.828l1.573,5.574
			c-3.178,1.024-6.719,1.792-10.624,2.303c-0.054,2.02-0.106,3.528-0.16,4.524h10.985v5.574h-2.828v19.066h-5.978V52.398h-2.545
			c-0.404,4.579-1.1,8.308-2.08,11.189c-0.983,2.882-2.377,5.547-4.181,7.998l-3.758-3.918l-0.889,1.05
			c-0.754-0.916-1.683-1.952-2.787-3.11v6.221h-6.1v-6.746c-1.268,2.046-2.625,3.823-4.08,5.332l-3.07-4.807
			c2.208-1.858,4.025-3.945,5.453-6.261h-4.363v-5.089h6.061V52.48h-6.061v-4.928h3.191c-0.377-1.535-0.782-3.07-1.212-4.604h-1.777
			v-5.09h5.857V34.06h6.1v3.797h6.907v5.09h-1.697c-0.323,1.292-0.822,2.827-1.494,4.604h3.029v4.928H171.56z M161.098,47.551h2.021
			c0.617-1.562,1.131-3.096,1.533-4.604h-4.686C160.505,44.993,160.882,46.528,161.098,47.551z"/>
		<path fill="#0099D9" d="M195.715,54.822v-5.089h3.999c0.024-0.511,0.04-1.319,0.04-2.424v-1.414h-3.635v-5.413h3.635v-5.816h6.059
			v5.816h3.557v5.413h-3.557v1.09c0,1.239-0.014,2.155-0.041,2.747h3.676v5.089h-4.28c1.992,2.478,3.646,4.646,4.968,6.503
			l-3.635,3.999c-1.616-2.585-2.545-4.066-2.788-4.443c-1.077,4.336-2.841,7.822-5.292,10.462l-3.435-5.453
			c2.369-3.016,3.823-6.706,4.362-11.068L195.715,54.822L195.715,54.822L195.715,54.822z M227.262,71.061h-1.212h-1.171
			c-2.127-0.027-3.447-0.229-3.958-0.606c-0.512-0.377-0.77-1.307-0.77-2.787v-7.473h-1.05c-0.916,6.086-5.009,9.91-12.28,11.472
			l-1.856-5.009c2.585-0.511,4.562-1.292,5.938-2.343c1.373-1.05,2.248-2.424,2.625-4.12h-2.866V35.433h20.964v24.762h-5.857v4.483
			c0,0.62,0.021,0.978,0.062,1.071c0.041,0.093,0.182,0.155,0.424,0.182c0.054,0,0.146,0.007,0.283,0.02
			c0.134,0.014,0.215,0.02,0.24,0.02c0.056,0,0.144-0.006,0.265-0.02c0.121-0.013,0.208-0.02,0.263-0.02
			c0.404-0.027,0.646-0.235,0.728-0.626c0.08-0.39,0.135-1.69,0.161-3.898l5.372,0.688c-0.054,1.266-0.095,2.235-0.121,2.908
			c-0.025,0.673-0.101,1.387-0.222,2.141c-0.121,0.753-0.216,1.292-0.283,1.616c-0.065,0.323-0.242,0.673-0.523,1.05
			c-0.283,0.377-0.525,0.612-0.729,0.707c-0.202,0.094-0.563,0.202-1.09,0.323c-0.526,0.121-0.997,0.188-1.414,0.202
			C228.763,71.054,228.124,71.061,227.262,71.061z M216.639,42.624h8.725v-2.101h-8.725V42.624z M216.639,46.865v2.101h8.725v-2.101
			H216.639z M216.639,53.207v2.06h8.725v-2.06H216.639z"/>
		<path fill="#0099D9" d="M269.191,47.875v2.747h-22.78v-2.747c-1.858,1.186-3.839,2.276-5.938,3.272l-2.343-5.251
			c6.005-3.097,11.188-6.8,15.552-11.108h8.24c4.363,4.309,9.546,8.012,15.552,11.108l-2.343,5.251
			C273.028,50.15,271.049,49.06,269.191,47.875z M240.229,58.579v-5.251h35.145v5.251h-5.13c1.938,3.932,3.781,7.85,5.532,11.754
			l-5.693,1.898c-0.862-1.939-1.389-3.11-1.575-3.514c-9.695,1.077-18.622,1.737-26.781,1.979l-0.363-5.251
			c2.531-0.107,4.443-0.188,5.736-0.242c1.023-1.804,2.154-4.012,3.394-6.625L240.229,58.579L240.229,58.579z M265.677,45.532
			c-2.882-2.046-5.507-4.282-7.877-6.706c-2.37,2.424-4.996,4.659-7.876,6.706H265.677z M266.242,63.79
			c-0.189-0.376-0.479-0.982-0.869-1.817c-0.393-0.834-0.682-1.455-0.868-1.858l4.441-1.535h-11.593
			c-0.86,1.993-1.856,4.053-2.987,6.18C259.698,64.382,263.657,64.059,266.242,63.79z"/>
		<path fill="#0099D9" d="M312.289,64.799c3.204,1.05,5.856,2.047,7.957,2.989l-2.947,4.443c-3.608-1.751-7.998-3.434-13.168-5.049
			l1.172-2.383h-8.16l1.171,2.02c-3.367,2.101-7.931,3.823-13.691,5.17l-2.385-4.605c3.204-0.781,6.101-1.642,8.687-2.585h-5.938
			V45.774h32.479v19.025H312.289z M292.902,44.684H286.6v-9.452h29.246v9.452H292.902z M291.447,51.349h19.551v-1.535h-19.551
			V51.349z M291.447,54.661v1.575h19.551v-1.575H291.447z M291.447,59.548v1.575h19.551v-1.575H291.447z M292.902,41.331h16.644
			v-1.616h-16.644V41.331z"/>
		<path fill="#0099D9" d="M327.115,65.365l-2.02-4.767c2.69-0.781,5.021-1.71,6.986-2.787h-5.814v-4.12h11.146l0.729-0.849h-2.141
			h-6.425V41.735h4.849v-1.01h-8.158v-4.484h8.158V34.02h6.262v2.222h7.917V34.02h6.261v2.222h8.16v4.484h-8.16v1.01h4.85v11.108
			h-14.945l-0.606,0.849h18.864v4.12h-5.815c1.886,1.023,4.215,1.953,6.987,2.787l-2.021,4.767c-0.378-0.135-1.44-0.552-3.19-1.252
			c-0.162,2.127-0.459,3.702-0.889,4.726c-0.434,1.023-1.031,1.703-1.798,2.04c-0.77,0.336-1.935,0.505-3.494,0.505
			c-2.316,0-4.592-0.067-6.827-0.202l-0.282-5.211c2.154,0.162,3.958,0.243,5.413,0.243c0.484,0,0.787-0.081,0.908-0.243
			c0.121-0.161,0.236-0.659,0.344-1.494h-6.746c-2.691,3.581-7.998,6.099-15.915,7.553l-2.505-4.726
			c4.955-0.672,8.551-1.616,10.785-2.827h-5.17v-1.495C331.303,63.736,329.404,64.531,327.115,65.365z M336.002,45.936h17.289
			v-1.171h-17.289V45.936z M336.002,48.561v1.131h17.289v-1.131H336.002z M341.738,58.458h6.141
			c-0.026,0.351-0.096,0.849-0.201,1.495h3.756c-1.104-0.834-1.979-1.548-2.625-2.141h-8.281c-0.646,0.593-1.521,1.306-2.625,2.141
			h3.635C341.615,59.629,341.684,59.131,341.738,58.458z M340.688,41.735h7.917v-1.01h-7.917V41.735z"/>
		<path fill="#0099D9" d="M407.215,65.365l-1.857,5.332c-5.521-1.4-10.18-3.003-13.977-4.807v5.695h-6.624V65.89
			c-3.798,1.804-8.456,3.406-13.979,4.807l-1.856-5.332c5.467-0.996,9.924-2.087,13.371-3.271h-12.482v-4.484h14.946v-1.333h-12.36
			V48.44l-3.878-2.1c2.262-3.797,4.052-7.823,5.372-12.078l5.938,0.889c-0.054,0.243-0.24,0.903-0.562,1.979h7.311
			c0.297-0.834,0.594-1.791,0.891-2.868l6.262,0.566c-0.055,0.188-0.129,0.438-0.223,0.747c-0.097,0.31-0.178,0.593-0.242,0.848
			c-0.068,0.256-0.143,0.492-0.223,0.707h11.512v4.484h-12.077v1.333h10.866v3.433h-10.866v1.333h10.866v3.474h-10.866v1.292h12.077
			v3.797h-13.168v1.333h14.542v4.484H393.85C397.291,63.278,401.746,64.369,407.215,65.365z M385.888,42.947v-1.333h-7.23v1.333
			H385.888z M385.888,47.713V46.38h-7.23v1.333H385.888z M385.888,51.187h-7.23v1.292h7.23V51.187z"/>
		<path fill="#0099D9" d="M420.102,60.316v2.141h-6.061V40.685h14.139v-6.423h6.625v6.423h14.138v21.772h-6.06v-2.141h-8.078V71.99
			h-6.625V60.316H420.102z M420.102,55.064h8.078v-8.967h-8.078V55.064z M442.883,55.064v-8.967h-8.078v8.967H442.883z"/>
	</g>
	<g>
		
			<linearGradient id="SVGID_1_" gradientUnits="userSpaceOnUse" x1="64.1233" y1="788.0928" x2="64.1233" y2="821.2776" gradientTransform="matrix(1 0 0 1 106.585 -754.2207)">
			<stop  offset="0.5443" style="stop-color:#0099D9"/>
			<stop  offset="1" style="stop-color:#036EB8"/>
		</linearGradient>
		<path fill="url(#SVGID_1_)" d="M171.56,52.479h-6.746v1.777h6.223v5.089h-6.102c1.562,1.32,3.218,2.801,4.968,4.443
			c1.292-2.611,2.183-5.783,2.666-9.513c0.485-3.729,0.729-9.405,0.729-17.026c5.951-0.485,10.879-1.427,14.784-2.828l1.573,5.574
			c-3.178,1.024-6.719,1.792-10.624,2.303c-0.054,2.02-0.106,3.528-0.16,4.524h10.985v5.574h-2.828v19.066h-5.978V52.398h-2.545
			c-0.404,4.579-1.1,8.308-2.08,11.189c-0.983,2.882-2.377,5.547-4.181,7.998l-3.758-3.918l-0.889,1.05
			c-0.754-0.916-1.683-1.952-2.787-3.11v6.221h-6.1v-6.746c-1.268,2.046-2.625,3.823-4.08,5.332l-3.07-4.807
			c2.208-1.858,4.025-3.945,5.453-6.261h-4.363v-5.089h6.061V52.48h-6.061v-4.928h3.191c-0.377-1.535-0.782-3.07-1.212-4.604h-1.777
			v-5.09h5.857V34.06h6.1v3.797h6.907v5.09h-1.697c-0.323,1.292-0.822,2.827-1.494,4.604h3.029v4.928H171.56z M161.098,47.551h2.021
			c0.617-1.562,1.131-3.096,1.533-4.604h-4.686C160.505,44.993,160.882,46.528,161.098,47.551z"/>
		
			<linearGradient id="SVGID_2_" gradientUnits="userSpaceOnUse" x1="107.6907" y1="788.0928" x2="107.6907" y2="821.2786" gradientTransform="matrix(1 0 0 1 106.585 -754.2207)">
			<stop  offset="0.5443" style="stop-color:#0099D9"/>
			<stop  offset="1" style="stop-color:#036EB8"/>
		</linearGradient>
		<path fill="url(#SVGID_2_)" d="M195.715,54.822v-5.089h3.999c0.024-0.511,0.04-1.319,0.04-2.424v-1.414h-3.635v-5.413h3.635
			v-5.816h6.059v5.816h3.557v5.413h-3.557v1.09c0,1.239-0.014,2.155-0.041,2.747h3.676v5.089h-4.28
			c1.992,2.478,3.646,4.646,4.968,6.503l-3.635,3.999c-1.616-2.585-2.545-4.066-2.788-4.443c-1.077,4.336-2.841,7.822-5.292,10.462
			l-3.435-5.453c2.369-3.016,3.823-6.706,4.362-11.068L195.715,54.822L195.715,54.822L195.715,54.822z M227.262,71.061h-1.212
			h-1.171c-2.127-0.027-3.447-0.229-3.958-0.606c-0.512-0.377-0.77-1.307-0.77-2.787v-7.473h-1.05
			c-0.916,6.086-5.009,9.91-12.28,11.472l-1.856-5.009c2.585-0.511,4.562-1.292,5.938-2.343c1.373-1.05,2.248-2.424,2.625-4.12
			h-2.866V35.433h20.964v24.762h-5.857v4.483c0,0.62,0.021,0.978,0.062,1.071c0.041,0.093,0.182,0.155,0.424,0.182
			c0.054,0,0.146,0.007,0.283,0.02c0.134,0.014,0.215,0.02,0.24,0.02c0.056,0,0.144-0.006,0.265-0.02
			c0.121-0.013,0.208-0.02,0.263-0.02c0.404-0.027,0.646-0.235,0.728-0.626c0.08-0.39,0.135-1.69,0.161-3.898l5.372,0.688
			c-0.054,1.266-0.095,2.235-0.121,2.908c-0.025,0.673-0.101,1.387-0.222,2.141c-0.121,0.753-0.216,1.292-0.283,1.616
			c-0.065,0.323-0.242,0.673-0.523,1.05c-0.283,0.377-0.525,0.612-0.729,0.707c-0.202,0.094-0.563,0.202-1.09,0.323
			c-0.526,0.121-0.997,0.188-1.414,0.202C228.763,71.054,228.124,71.061,227.262,71.061z M216.639,42.624h8.725v-2.101h-8.725
			V42.624z M216.639,46.865v2.101h8.725v-2.101H216.639z M216.639,53.207v2.06h8.725v-2.06H216.639z"/>
		
			<linearGradient id="SVGID_3_" gradientUnits="userSpaceOnUse" x1="151.2161" y1="788.0938" x2="151.2161" y2="821.2786" gradientTransform="matrix(1 0 0 1 106.585 -754.2207)">
			<stop  offset="0.5443" style="stop-color:#0099D9"/>
			<stop  offset="1" style="stop-color:#036EB8"/>
		</linearGradient>
		<path fill="url(#SVGID_3_)" d="M269.191,47.875v2.747h-22.78v-2.747c-1.858,1.186-3.839,2.276-5.938,3.272l-2.343-5.251
			c6.005-3.097,11.188-6.8,15.552-11.108h8.24c4.363,4.309,9.546,8.012,15.552,11.108l-2.343,5.251
			C273.028,50.15,271.049,49.06,269.191,47.875z M240.229,58.579v-5.251h35.145v5.251h-5.13c1.938,3.932,3.781,7.85,5.532,11.754
			l-5.693,1.898c-0.862-1.939-1.389-3.11-1.575-3.514c-9.695,1.077-18.622,1.737-26.781,1.979l-0.363-5.251
			c2.531-0.107,4.443-0.188,5.736-0.242c1.023-1.804,2.154-4.012,3.394-6.625L240.229,58.579L240.229,58.579z M265.677,45.532
			c-2.882-2.046-5.507-4.282-7.877-6.706c-2.37,2.424-4.996,4.659-7.876,6.706H265.677z M266.242,63.79
			c-0.189-0.376-0.479-0.982-0.869-1.817c-0.393-0.834-0.682-1.455-0.868-1.858l4.441-1.535h-11.593
			c-0.86,1.993-1.856,4.053-2.987,6.18C259.698,64.382,263.657,64.059,266.242,63.79z"/>
		
			<linearGradient id="SVGID_4_" gradientUnits="userSpaceOnUse" x1="194.657" y1="788.0928" x2="194.657" y2="821.2786" gradientTransform="matrix(1 0 0 1 106.585 -754.2207)">
			<stop  offset="0.5443" style="stop-color:#0099D9"/>
			<stop  offset="1" style="stop-color:#036EB8"/>
		</linearGradient>
		<path fill="url(#SVGID_4_)" d="M312.289,64.799c3.204,1.05,5.856,2.047,7.957,2.989l-2.947,4.443
			c-3.608-1.751-7.998-3.434-13.168-5.049l1.172-2.383h-8.16l1.171,2.02c-3.367,2.101-7.931,3.823-13.691,5.17l-2.385-4.605
			c3.204-0.781,6.101-1.642,8.687-2.585h-5.938V45.774h32.479v19.025H312.289z M292.902,44.684H286.6v-9.452h29.246v9.452H292.902z
			 M291.447,51.349h19.551v-1.535h-19.551V51.349z M291.447,54.661v1.575h19.551v-1.575H291.447z M291.447,59.548v1.575h19.551
			v-1.575H291.447z M292.902,41.331h16.644v-1.616h-16.644V41.331z"/>
		
			<linearGradient id="SVGID_5_" gradientUnits="userSpaceOnUse" x1="238.0613" y1="788.0938" x2="238.0613" y2="821.2786" gradientTransform="matrix(1 0 0 1 106.585 -754.2207)">
			<stop  offset="0.5443" style="stop-color:#0099D9"/>
			<stop  offset="1" style="stop-color:#036EB8"/>
		</linearGradient>
		<path fill="url(#SVGID_5_)" d="M327.115,65.365l-2.02-4.767c2.69-0.781,5.021-1.71,6.986-2.787h-5.814v-4.12h11.146l0.729-0.849
			h-2.141h-6.425V41.735h4.849v-1.01h-8.158v-4.484h8.158V34.02h6.262v2.222h7.917V34.02h6.261v2.222h8.16v4.484h-8.16v1.01h4.85
			v11.108h-14.945l-0.606,0.849h18.864v4.12h-5.815c1.886,1.023,4.215,1.953,6.987,2.787l-2.021,4.767
			c-0.378-0.135-1.44-0.552-3.19-1.252c-0.162,2.127-0.459,3.702-0.889,4.726c-0.434,1.023-1.031,1.703-1.798,2.04
			c-0.77,0.336-1.935,0.505-3.494,0.505c-2.316,0-4.592-0.067-6.827-0.202l-0.282-5.211c2.154,0.162,3.958,0.243,5.413,0.243
			c0.484,0,0.787-0.081,0.908-0.243c0.121-0.161,0.236-0.659,0.344-1.494h-6.746c-2.691,3.581-7.998,6.099-15.915,7.553
			l-2.505-4.726c4.955-0.672,8.551-1.616,10.785-2.827h-5.17v-1.495C331.303,63.736,329.404,64.531,327.115,65.365z M336.002,45.936
			h17.289v-1.171h-17.289V45.936z M336.002,48.561v1.131h17.289v-1.131H336.002z M341.738,58.458h6.141
			c-0.026,0.351-0.096,0.849-0.201,1.495h3.756c-1.104-0.834-1.979-1.548-2.625-2.141h-8.281c-0.646,0.593-1.521,1.306-2.625,2.141
			h3.635C341.615,59.629,341.684,59.131,341.738,58.458z M340.688,41.735h7.917v-1.01h-7.917V41.735z"/>
		
			<linearGradient id="SVGID_6_" gradientUnits="userSpaceOnUse" x1="281.2815" y1="788.0938" x2="281.2815" y2="821.2786" gradientTransform="matrix(1 0 0 1 106.585 -754.2207)">
			<stop  offset="0.5443" style="stop-color:#0099D9"/>
			<stop  offset="1" style="stop-color:#036EB8"/>
		</linearGradient>
		<path fill="url(#SVGID_6_)" d="M407.215,65.365l-1.857,5.332c-5.521-1.4-10.18-3.003-13.977-4.807v5.695h-6.624V65.89
			c-3.798,1.804-8.456,3.406-13.979,4.807l-1.856-5.332c5.467-0.996,9.924-2.087,13.371-3.271h-12.482v-4.484h14.946v-1.333h-12.36
			V48.44l-3.878-2.1c2.262-3.797,4.052-7.823,5.372-12.078l5.938,0.889c-0.054,0.243-0.24,0.903-0.562,1.979h7.311
			c0.297-0.834,0.594-1.791,0.891-2.868l6.262,0.566c-0.055,0.188-0.129,0.438-0.223,0.747c-0.097,0.31-0.178,0.593-0.242,0.848
			c-0.068,0.256-0.143,0.492-0.223,0.707h11.512v4.484h-12.077v1.333h10.866v3.433h-10.866v1.333h10.866v3.474h-10.866v1.292h12.077
			v3.797h-13.168v1.333h14.542v4.484H393.85C397.291,63.278,401.746,64.369,407.215,65.365z M385.888,42.947v-1.333h-7.23v1.333
			H385.888z M385.888,47.713V46.38h-7.23v1.333H385.888z M385.888,51.187h-7.23v1.292h7.23V51.187z"/>
		
			<linearGradient id="SVGID_7_" gradientUnits="userSpaceOnUse" x1="324.9065" y1="788.0938" x2="324.9065" y2="821.2778" gradientTransform="matrix(1 0 0 1 106.585 -754.2207)">
			<stop  offset="0.5443" style="stop-color:#0099D9"/>
			<stop  offset="1" style="stop-color:#036EB8"/>
		</linearGradient>
		<path fill="url(#SVGID_7_)" d="M420.102,60.316v2.141h-6.061V40.685h14.139v-6.423h6.625v6.423h14.138v21.772h-6.06v-2.141h-8.078
			V71.99h-6.625V60.316H420.102z M420.102,55.064h8.078v-8.967h-8.078V55.064z M442.883,55.064v-8.967h-8.078v8.967H442.883z"/>
	</g>
</g>
<linearGradient id="SVGID_8_" gradientUnits="userSpaceOnUse" x1="130.5149" y1="-282.0547" x2="139.2092" y2="-232.747" gradientTransform="matrix(0.9781 -0.2079 0.2079 0.9781 -14.9968 329.0465)">
	<stop  offset="0.5443" style="stop-color:#0099D9"/>
	<stop  offset="1" style="stop-color:#036EB7"/>
</linearGradient>
<path fill="url(#SVGID_8_)" d="M98.422,43.798l1.125-0.013c-0.027,0.298-0.079,0.744-0.151,1.339l8.742-1.857l0.204,0.964
	L103.79,45.2l0.526,2.461l4.118-0.875l0.206,0.968l-4.12,0.875l0.627,2.95l5.226-1.11l0.209,0.979l-5.229,1.11l0.702,3.295
	l-1.15,0.246l-0.7-3.294l-6.583,1.395l-0.206-0.976l2.55-0.541l-0.834-3.918l4.031-0.857l-0.523-2.462l-3.412,0.726
	c-0.297,1.578-0.735,3.045-1.308,4.4l-1.044-0.456C97.722,48.121,98.241,46.017,98.422,43.798z M102.637,48.871l-2.939,0.626
	l0.627,2.951l2.939-0.625L102.637,48.871z M111.994,45.106l0.389,1.829c0.594,2.802,0.622,5.239,0.075,7.299l-1.003-0.691
	c0.21-0.986,0.297-2.03,0.255-3.123c-0.042-1.094-0.227-2.412-0.553-3.948l-0.896-4.201l5.415-1.153l-0.266-1.255l1.15-0.245
	l0.268,1.255l5.326-1.132l0.2,0.937l-2.316,0.491l0.255,1.21l2.304-0.491l0.195,0.92l-2.303,0.492l0.497,2.348l-6.306,1.343
	l-0.497-2.349L111.994,45.106z M111.798,44.184l2.189-0.466l-0.257-1.207l-2.188,0.465L111.798,44.184z M114.818,49.412l0.826-0.715
	c0.885,0.643,1.905,1.126,3.077,1.438c0.994-0.796,1.808-1.713,2.44-2.762L113.6,48.98l-0.196-0.924l8.883-1.888l0.195,0.923
	c-0.519,1.184-1.361,2.283-2.52,3.288c1.287,0.21,2.831,0.276,4.635,0.203l-0.137,0.993c-2.102,0.078-3.935-0.055-5.502-0.392
	c-1.279,0.929-2.906,1.799-4.895,2.605l-0.513-0.857c1.643-0.627,3.031-1.321,4.165-2.074
	C116.554,50.494,115.587,50.012,114.818,49.412z M115.094,43.486l4.076-0.868l-0.258-1.208l-4.075,0.863L115.094,43.486z
	 M115.291,44.407l0.319,1.497l4.077-0.867l-0.321-1.496L115.291,44.407z M31.883,66.304l1.534,7.213l-21.002,4.464l4.828-10.103
	c0.281-0.606,0.594-1.281,0.945-2.022c0.346-0.74,0.691-1.54,1.027-2.398c0.338-0.858,0.666-1.756,0.987-2.697
	c0.321-0.938,0.585-1.875,0.798-2.811c0.23-0.973,0.381-1.937,0.45-2.891c0.071-0.956,0.024-1.825-0.142-2.61
	c-0.245-1.146-0.748-2.07-1.514-2.781c-0.769-0.709-1.558-0.978-2.368-0.805c-0.89,0.188-1.514,0.697-1.872,1.525
	c-0.354,0.829-0.402,1.865-0.136,3.107c0.005,0.034,0.013,0.066,0.02,0.098c0.034,0.167,0.076,0.336,0.129,0.514
	c0.049,0.176,0.134,0.406,0.25,0.688l-7.498,1.594c-0.828-3.893-0.5-7.173,0.982-9.85c1.482-2.672,3.729-4.329,6.74-4.971
	c2.824-0.601,5.411,0.022,7.759,1.863c2.346,1.843,3.88,4.449,4.597,7.819c0.325,1.537,0.433,3.009,0.323,4.419
	c-0.113,1.408-0.464,2.84-1.055,4.301c-0.149,0.338-0.305,0.689-0.475,1.05c-0.168,0.359-0.355,0.714-0.555,1.063l-3.309,6.039
	L31.883,66.304z M29.152,49.884c0.055-2.114,0.425-4.08,1.103-5.902c0.719-1.896,1.668-3.414,2.848-4.555
	c1.179-1.138,2.581-1.879,4.203-2.226c1.624-0.345,3.206-0.236,4.748,0.325c1.54,0.561,3.012,1.564,4.414,3.009
	c1.386,1.381,2.531,3.026,3.428,4.938c0.9,1.913,1.638,4.225,2.214,6.941c0.57,2.684,0.836,5.087,0.796,7.214
	c-0.041,2.129-0.41,4.123-1.108,5.98c-0.693,1.892-1.631,3.398-2.814,4.521c-1.183,1.125-2.586,1.857-4.208,2.202
	c-1.624,0.347-3.204,0.245-4.741-0.298c-1.538-0.544-3.021-1.537-4.447-2.98c-1.368-1.416-2.51-3.09-3.427-5.014
	c-0.915-1.924-1.656-4.229-2.227-6.91C29.356,54.415,29.094,51.999,29.152,49.884z M39.463,62.796
	c1.208,1.692,2.453,2.402,3.737,2.129c1.28-0.272,2.123-1.424,2.524-3.462c0.402-2.033,0.287-4.538-0.344-7.515
	c-0.641-3.007-1.559-5.359-2.752-7.056c-1.196-1.695-2.433-2.404-3.713-2.132c-1.285,0.271-2.134,1.425-2.546,3.462
	c-0.417,2.038-0.304,4.562,0.336,7.568C37.338,58.768,38.258,61.104,39.463,62.796z M74.51,57.244l1.533,7.212l-20.999,4.462
	l4.827-10.103c0.281-0.604,0.595-1.279,0.944-2.021c0.349-0.74,0.691-1.538,1.03-2.396c0.335-0.86,0.665-1.757,0.984-2.695
	c0.322-0.94,0.588-1.878,0.798-2.813c0.232-0.973,0.383-1.936,0.454-2.892c0.07-0.955,0.023-1.824-0.143-2.608
	c-0.244-1.147-0.751-2.073-1.517-2.782c-0.766-0.707-1.557-0.975-2.368-0.802c-0.889,0.189-1.512,0.695-1.869,1.523
	c-0.357,0.831-0.404,1.864-0.138,3.108c0.006,0.032,0.013,0.064,0.019,0.096c0.037,0.165,0.077,0.334,0.13,0.513
	c0.05,0.176,0.133,0.406,0.249,0.691l-7.498,1.59c-0.828-3.893-0.5-7.173,0.985-9.85c1.482-2.673,3.726-4.329,6.737-4.971
	c2.827-0.6,5.412,0.022,7.759,1.863c2.348,1.844,3.88,4.449,4.596,7.819c0.326,1.537,0.434,3.009,0.324,4.419
	c-0.111,1.406-0.464,2.84-1.055,4.301c-0.149,0.337-0.305,0.688-0.475,1.048c-0.17,0.362-0.355,0.718-0.553,1.065l-3.311,6.039
	L74.51,57.244z M95.631,46.446l1.387,6.525l-3.18,0.675l1.429,6.724l-6.281,1.334l-1.429-6.722l-12.679,2.694l-1.155-5.447
	l5.677-22.693l8.912-1.894l4.139,19.48L95.631,46.446z M83.491,35.846l-3.482,13.921l6.163-1.308L83.491,35.846z"/>
</svg>
