<?xml version="1.0" encoding="utf-8"?>
<!-- Generator: Adobe Illustrator 15.1.0, SVG Export Plug-In . SVG Version: 6.00 Build 0)  -->
<!DOCTYPE svg PUBLIC "-//W3C//DTD SVG 1.1//EN" "http://www.w3.org/Graphics/SVG/1.1/DTD/svg11.dtd">
<svg version="1.1" id="レイヤー_1" xmlns="http://www.w3.org/2000/svg" xmlns:xlink="http://www.w3.org/1999/xlink" x="0px"
	 y="0px" width="600px" height="213px" viewBox="0 0 600 213" enable-background="new 0 0 600 213" xml:space="preserve">
<path fill="#FFF100" d="M524.4,48.799L506.02,22.625c-1.791-2.552-5.809-4.64-8.928-4.64H92.689
	C80.892,4.594,62.605-2.513,43.745,0.813C14.958,5.89-4.263,33.34,0.812,62.128c5.076,28.786,32.528,48.01,61.314,42.934
	c12.306-2.17,22.854-8.438,30.514-17.143h404.452c3.119,0,7.164-2.068,8.988-4.597l18.26-25.288
	C526.166,55.507,526.193,51.351,524.4,48.799z"/>
<g>
	<g>
		<g>
			<path fill="#FFFFFF" d="M45.056,208.948v3.776h-1.511v-23.492c-2.015,4.281-4.583,8.36-7.705,12.237l-1.208-0.906
				c5.439-6.697,9.392-14.604,11.859-23.72h-8.611v-1.511h8.989c0.906-3.675,1.586-7.578,2.04-11.708H35.991v-1.511h13.144
				c0.302-3.475,0.453-7.126,0.453-10.953H38.635v-1.511h28.705v12.464h4.155v1.511h-4.155v13.219H48.077
				c-1.008,3.677-2.065,6.825-3.172,9.442h22.812v26.438h-1.511v-3.776H45.056z M66.207,207.438v-19.641H45.056v19.641H66.207z
				 M48.455,175.333h17.374v-11.708H50.495C50.041,167.755,49.361,171.658,48.455,175.333z M65.829,151.161h-14.73
				c0,3.827-0.151,7.479-0.453,10.953h15.183V151.161z M105.486,193.085v1.511H88.868v18.885h-1.511v-18.885H69.983v-1.511h17.374
				v-16.241H71.872v-1.511h15.485v-15.485H70.739v-1.511h22.586c2.014-4.33,3.702-8.434,5.061-12.312l1.36,0.453
				c-1.36,3.828-2.946,7.78-4.759,11.859h9.744v1.511H88.868v15.485h14.73v1.511h-14.73v16.241H105.486z M76.857,146.553l1.36-0.604
				c1.812,3.827,3.324,7.353,4.532,10.575l-1.36,0.604C79.929,153.251,78.418,149.726,76.857,146.553z"/>
			<path fill="#FFFFFF" d="M115.76,211.214c2.971-5.438,5.488-11.305,7.554-17.601l1.36,0.454
				c-2.266,6.849-4.785,12.816-7.554,17.902L115.76,211.214z M123.238,188.553V149.65h53.255v1.511h-26.816v10.575h24.55v1.511
				h-24.55V174.2h24.55v1.511h-24.55v11.331h30.216v0.755c0,9.065-0.642,15.423-1.926,19.074c-1.284,3.65-3.539,5.477-6.761,5.477
				c-2.821,0-6.245-0.253-10.273-0.756l0.151-1.511c4.632,0.503,8.007,0.756,10.122,0.756c1.058,0,1.938-0.215,2.644-0.643
				c0.705-0.429,1.436-1.335,2.191-2.72c0.755-1.384,1.333-3.663,1.737-6.836c0.402-3.173,0.604-7.201,0.604-12.086H123.238z
				 M148.166,161.736v-10.575h-23.417v10.575H148.166z M148.166,163.247h-23.417V174.2h23.417V163.247z M148.166,175.711h-23.417
				v11.331h23.417V175.711z M133.813,194.369l1.511-0.302c1.309,5.338,2.316,10.525,3.021,15.561l-1.511,0.151
				C136.129,204.895,135.123,199.758,133.813,194.369z M148.241,193.538l1.36-0.528c2.064,5.237,3.6,9.593,4.608,13.067
				l-1.511,0.454C151.438,202.251,149.953,197.919,148.241,193.538z M162.594,193.085l1.359-0.756
				c2.367,3.879,4.381,7.403,6.043,10.576l-1.36,0.755C166.874,200.388,164.86,196.862,162.594,193.085z"/>
			<path fill="#FFFFFF" d="M227.104,153.427h-14.73v21.529h11.708v1.511h-11.708v27.27c6.294-1.863,11.104-3.5,14.428-4.91
				l0.604,1.359c-7.504,3.224-18.885,6.522-34.144,9.896l-0.302-1.511c0.453-0.102,1.46-0.328,3.021-0.68
				c1.561-0.354,2.744-0.629,3.55-0.831v-40.791h1.511v40.413c1.511-0.352,4.784-1.208,9.82-2.568v-50.687h-16.241v-1.511h32.481
				V153.427z M234.657,163.7l1.511-0.15c1.511,12.388,4.608,22.233,9.292,29.535c6.244-8.158,10.046-19.489,11.406-33.992H235.11
				c-2.519,7.906-5.464,14.831-8.838,20.772l-1.359-0.755c5.438-9.467,9.442-20.471,12.01-33.011l1.511,0.303
				c-0.706,3.475-1.662,7.202-2.87,11.18h28.931v1.511h-6.119c-1.36,15.158-5.363,26.942-12.011,35.352
				c4.129,5.943,10.047,11.331,17.751,16.166l-0.755,1.208c-7.856-4.935-13.85-10.322-17.978-16.165
				c-5.439,6.496-13.321,11.909-23.644,16.24l-0.604-1.359c10.123-4.23,17.903-9.618,23.342-16.165
				C239.441,186.715,236.168,176.492,234.657,163.7z"/>
			<path fill="#FFFFFF" d="M297.43,168.006l1.36-0.604c2.517,6.194,4.431,12.313,5.741,18.356l-1.511,0.302
				c-0.654-2.668-1.058-4.33-1.209-4.985l-11.632,0.604v31.802h-1.511v-31.727l-14.277,0.756l-0.151-1.511l4.91-0.227
				c1.007-1.107,3.021-3.524,6.043-7.252c-3.676-6.496-6.874-11.936-9.593-16.316l1.208-0.755c0.201,0.353,0.529,0.881,0.982,1.586
				c0.454,0.706,0.869,1.373,1.247,2.002c0.378,0.63,0.743,1.222,1.095,1.774c2.871-3.978,6.119-9.038,9.745-15.183l1.36,0.755
				c-2.972,5.087-6.396,10.349-10.273,15.788c3.122,5.338,4.884,8.359,5.288,9.064c4.733-6.043,9.089-12.312,13.068-18.81
				l1.359,0.756c-5.59,9.115-12.061,17.929-19.413,26.438l20.169-1.058C300.376,175.888,299.041,172.036,297.43,168.006z
				 M275.146,208.344c2.618-6.949,4.23-14.075,4.834-21.377l1.511,0.15c-0.604,7.051-2.266,14.277-4.985,21.68L275.146,208.344z
				 M296.977,186.815l1.511-0.303c1.409,5.641,2.417,11.457,3.021,17.45l-1.511,0.15
				C299.443,198.625,298.437,192.858,296.977,186.815z M324.17,209.326h18.885v1.511h-41.924v-1.511h21.529v-18.13h-16.996v-1.511
				h16.996v-11.708h1.51v11.708h16.619v1.511H324.17V209.326z M308.836,155.014l1.209-0.906c4.129,5.791,8.938,10.953,14.428,15.485
				c5.992-4.633,10.751-10.651,14.277-18.054h-35.353v-1.511h37.014v1.511c-3.525,7.705-8.436,14.05-14.729,19.035
				c5.236,4.181,10.877,7.681,16.92,10.5l-0.604,1.359c-6.246-2.92-12.086-6.546-17.525-10.877
				c-4.734,3.525-10.803,6.647-18.205,9.366l-0.453-1.359c6.848-2.467,12.664-5.464,17.449-8.989
				C317.724,165.941,312.915,160.755,308.836,155.014z"/>
			<path fill="#FFFFFF" d="M353.48,209.93c4.834-4.834,8.309-10.272,10.424-16.316l1.359,0.454
				c-2.266,6.396-5.842,12.036-10.727,16.92L353.48,209.93z M372.289,154.636l1.209-0.906c1.057,1.511,2.391,3.601,4.003,6.27
				c2.618-1.511,4.935-3.146,6.95-4.91l1.057,1.209c-2.316,2.065-5.389,4.104-9.215,6.118c2.568,2.015,4.594,4.57,6.08,7.667
				c1.484,3.098,2.229,6.358,2.229,9.782c0,3.626-0.365,6.044-1.096,7.252c-0.73,1.209-2.379,1.813-4.947,1.813
				c-1.662,0-4.457-0.125-8.385-0.378l0.15-1.511c3.929,0.252,6.673,0.378,8.234,0.378c1.913,0,3.146-0.39,3.701-1.171
				c0.554-0.78,0.831-2.908,0.831-6.384c0-1.258-0.126-2.593-0.378-4.003c-6.345,5.036-15.334,9.14-26.967,12.312l-0.453-1.511
				c11.834-3.173,20.849-7.327,27.043-12.464c-0.453-1.711-1.285-3.575-2.493-5.59c-5.741,4.23-13.774,7.731-24.097,10.5
				l-0.453-1.511c10.373-2.819,18.28-6.244,23.719-10.273c-1.26-1.662-2.67-3.046-4.23-4.154c-5.338,2.619-11.684,4.91-19.035,6.874
				l-0.453-1.511c4.129-1.107,7.327-2.064,9.594-2.871c-1.613-3.021-3.174-5.689-4.684-8.007l1.209-0.906
				c1.51,2.266,3.146,5.061,4.909,8.385c3.878-1.46,7.177-2.92,9.896-4.381C374.906,158.438,373.598,156.399,372.289,154.636z
				 M356.955,153.805c11.481-1.662,20.218-3.901,26.211-6.723l0.605,1.359c-6.246,2.922-15.135,5.213-26.666,6.874L356.955,153.805z
				 M373.648,192.329h1.511v10.576c0,1.562,0,2.644,0,3.248s0.063,1.284,0.188,2.039c0.125,0.756,0.239,1.221,0.34,1.397
				c0.102,0.176,0.391,0.39,0.869,0.643c0.479,0.251,0.894,0.39,1.246,0.415c0.352,0.025,1.008,0.088,1.965,0.189
				c3.021,0.251,6.143,0.377,9.367,0.377c3.121,0,6.243-0.126,9.366-0.377c1.661-0.151,2.819-0.253,3.475-0.303
				c0.653-0.051,1.397-0.265,2.229-0.642c0.831-0.378,1.347-0.693,1.548-0.944c0.201-0.253,0.479-0.92,0.832-2.002
				c0.352-1.082,0.566-2.064,0.642-2.946c0.075-0.88,0.214-2.404,0.415-4.57l1.512,0.151c-0.203,2.217-0.367,3.865-0.492,4.948
				s-0.377,2.179-0.755,3.286c-0.378,1.106-0.718,1.851-1.02,2.228c-0.302,0.378-0.896,0.768-1.775,1.171
				c-0.882,0.402-1.751,0.654-2.606,0.756c-0.856,0.101-2.141,0.227-3.852,0.378c-3.173,0.251-6.346,0.377-9.518,0.377
				c-3.225,0-6.396-0.126-9.519-0.377c-2.821-0.253-4.521-0.857-5.099-1.813c-0.58-0.957-0.869-3.499-0.869-7.629V192.329z
				 M381.958,192.254l0.755-1.359c5.338,3.072,10.398,6.622,15.184,10.65l-0.906,1.209
				C392.508,198.928,387.497,195.427,381.958,192.254z M407.867,179.262c3.979,3.576,8.637,6.32,13.975,8.233l-0.453,1.359
				c-5.188-1.812-9.77-4.419-13.748-7.818c-3.979-3.398-7.025-7.313-9.14-11.746h-7.856v16.996
				c5.137-1.106,10.223-2.492,15.26-4.154l0.453,1.511c-7.052,2.317-14.252,4.079-21.604,5.288l-0.302-1.511
				c1.208-0.151,2.769-0.428,4.684-0.831v-37.694h28.704v20.396h-17.677c1.561,3.072,3.752,6.019,6.572,8.838
				c4.885-2.467,9.291-5.59,13.219-9.366l1.059,1.058C417.184,173.496,412.803,176.644,407.867,179.262z M390.645,158.337h25.684
				v-7.932h-25.684V158.337z M416.328,167.779v-7.932h-25.684v7.932H416.328z M409.303,192.405l1.209-0.906
				c4.481,5.942,8.283,12.036,11.406,18.28l-1.359,0.604C417.586,204.441,413.835,198.448,409.303,192.405z"/>
			<path fill="#FFFFFF" d="M434.457,161.358v-1.511h26.438v1.511H434.457z M436.723,151.161v-1.511h22.662v1.511H436.723z
				 M438.234,210.081v3.777h-1.512v-22.284h22.662v18.507H438.234z M437.102,171.935v-1.511h21.906v1.511H437.102z M437.102,182.51
				v-1.511h21.906v1.511H437.102z M438.234,208.57h19.64v-15.485h-19.64V208.57z M497.684,148.518l0.453,1.511
				c-5.037,1.461-10.273,2.694-15.713,3.701v14.806h17.752v1.511h-17.752v13.219h15.486v29.46h-1.512v-4.532h-29.46v4.532h-1.511
				v-29.46h15.486v-13.219h-18.508v-1.511h18.508v-14.504c-5.541,1.008-11.181,1.688-16.922,2.04l-0.15-1.511
				C475.523,153.755,486.805,151.74,497.684,148.518z M496.398,206.682v-21.906h-29.46v21.906H496.398z"/>
			<path fill="#FFFFFF" d="M547.236,146.251c9.567,8.36,20.571,15.938,33.01,22.737l-0.755,1.359
				c-12.036-6.546-23.114-14.201-33.237-22.964c-10.122,8.763-21.201,16.418-33.236,22.964l-0.756-1.359
				c12.438-6.799,23.441-14.377,33.01-22.737H547.236z M561.513,190.517l1.209-0.906c5.187,7.303,10.222,14.881,15.107,22.737
				l-1.208,0.755c-0.605-0.957-2.293-3.576-5.062-7.855c-18.885,3.272-37.14,5.262-54.766,5.967v-1.511
				c2.165-0.102,5.767-0.302,10.802-0.604c3.777-7.905,7.126-16.265,10.047-25.078h-22.359v-1.511h61.941v1.511h-37.996
				c-3.223,9.518-6.521,17.853-9.895,25.003c13.143-0.957,26.916-2.669,41.319-5.137
				C568.186,200.161,565.139,195.704,561.513,190.517z M525.104,170.424v-1.511h42.301v1.511H525.104z"/>
		</g>
	</g>
</g>
<g>
	<g>
		<path fill="#FFFFFF" d="M53.891,126.717c-1.616-0.749-2.79-1.123-3.521-1.123c-0.579,0-1.004,0.195-1.276,0.586
			c-0.272,0.393-0.408,1.047-0.408,1.965h-1.709c0-2.84,1.046-4.26,3.138-4.26c1.123,0,2.704,0.477,4.745,1.428
			c1.616,0.749,2.79,1.123,3.521,1.123c0.578,0,1.003-0.183,1.275-0.549c0.272-0.365,0.408-0.947,0.408-1.748h1.709
			c0,2.671-1.046,4.006-3.138,4.006C57.514,128.145,55.932,127.669,53.891,126.717z"/>
		<path fill="#FFFFFF" d="M74.887,124.318c-1.378-1.327-2.9-2.611-4.567-3.853l1.123-1.378c1.803,1.344,3.342,2.619,4.618,3.827
			L74.887,124.318z M76.647,127.559c-1.004,3.044-2.339,5.74-4.005,8.086l-1.607-1.045c1.633-2.348,2.942-4.916,3.929-7.705
			L76.647,127.559z M71.724,114.854l1.148-1.378c1.463,1.105,2.849,2.271,4.159,3.495l-1.174,1.377
			C74.581,117.158,73.203,115.992,71.724,114.854z M75.882,135.619l-0.23-1.658c1.259-0.17,2.203-0.306,2.832-0.408v-8.979h1.964
			v2.628h4.541v1.658h-4.541v4.337c1.31-0.255,2.866-0.63,4.668-1.122l0.255,1.633C82.158,134.607,78.995,135.246,75.882,135.619z
			 M80.397,123.629h-1.913v-9.72h14.083v9.72H80.397z M80.397,118.017h10.205v-2.5H80.397V118.017z M80.397,119.471v2.679h10.205
			v-2.679H80.397z M89.888,135.416c-0.51,0-1.14-0.018-1.888-0.051c-0.782-0.035-1.275-0.15-1.479-0.346s-0.306-0.633-0.306-1.312
			v-9.134h1.964v3.087c1.718-0.578,3.453-1.344,5.205-2.297l0.74,1.48c-2.041,1.105-4.022,1.939-5.944,2.5v3.648
			c0,0.34,0.025,0.545,0.077,0.612c0.051,0.067,0.229,0.11,0.536,0.128c0.238,0.017,0.621,0.025,1.148,0.025
			s0.927-0.009,1.199-0.025c0.476-0.018,0.765-0.119,0.867-0.307c0.17-0.238,0.315-1.25,0.434-3.036c0-0.034,0-0.093,0-0.179
			l1.786,0.204c-0.051,0.868-0.098,1.515-0.14,1.938c-0.043,0.426-0.106,0.859-0.191,1.302c-0.085,0.442-0.166,0.739-0.243,0.894
			c-0.076,0.152-0.213,0.306-0.408,0.459c-0.195,0.152-0.395,0.246-0.599,0.28s-0.502,0.06-0.893,0.077
			C90.9,135.398,90.279,135.416,89.888,135.416z"/>
		<path fill="#FFFFFF" d="M100.526,124.318c-1.377-1.327-2.9-2.611-4.566-3.853l1.123-1.378c1.802,1.344,3.342,2.619,4.618,3.827
			L100.526,124.318z M102.465,127.404c-1.004,3.062-2.373,5.809-4.107,8.24l-1.582-1.045c1.649-2.33,2.985-4.958,4.005-7.883
			L102.465,127.404z M97.133,114.854l1.148-1.378c1.547,1.173,2.942,2.339,4.184,3.495l-1.173,1.377
			C100.101,117.226,98.715,116.061,97.133,114.854z M117.772,128.809l1.914,0.356c-0.051,0.868-0.089,1.544-0.115,2.028
			c-0.025,0.484-0.085,0.986-0.178,1.506c-0.094,0.519-0.179,0.9-0.255,1.147c-0.077,0.246-0.221,0.497-0.434,0.753
			c-0.213,0.255-0.413,0.42-0.6,0.497c-0.188,0.077-0.48,0.157-0.88,0.242c-0.4,0.085-0.787,0.132-1.161,0.141
			s-0.893,0.013-1.556,0.013c-0.953,0-1.684-0.018-2.194-0.051c-0.51-0.035-0.97-0.094-1.378-0.179s-0.685-0.234-0.829-0.446
			c-0.145-0.213-0.251-0.459-0.319-0.74s-0.102-0.685-0.102-1.212v-4.541h-3.725v2.935h-1.888V119.98h1.888v6.634h3.725v-8.572
			c-1.956,0.238-4.048,0.392-6.276,0.46l-0.229-1.762c2.398-0.084,4.566-0.246,6.505-0.484v-3.086h2.016v2.806
			c2.483-0.374,4.668-0.867,6.557-1.479l0.459,1.734c-2.007,0.664-4.346,1.183-7.016,1.557v8.827h4.464v-6.965h1.914v8.674h-6.378
			v4.286c0,0.307,0.013,0.52,0.038,0.638c0.025,0.119,0.149,0.229,0.37,0.331c0.221,0.103,0.51,0.158,0.867,0.166
			c0.357,0.01,0.953,0.014,1.786,0.014c0.425,0,0.731,0,0.918,0c0.187,0,0.412-0.034,0.676-0.103
			c0.264-0.067,0.438-0.118,0.523-0.153c0.085-0.033,0.195-0.166,0.332-0.395c0.136-0.23,0.217-0.412,0.243-0.549
			s0.068-0.442,0.127-0.919c0.06-0.476,0.098-0.876,0.115-1.198C117.712,130.117,117.738,129.573,117.772,128.809z"/>
		<path fill="#FFFFFF" d="M135.784,132.559c2.041-0.221,3.631-1.029,4.771-2.424s1.709-3.248,1.709-5.562
			c0-2.159-0.714-3.946-2.143-5.357s-3.257-2.151-5.485-2.22c-0.357,3.3-0.804,6.089-1.339,8.367
			c-0.536,2.279-1.127,4.002-1.773,5.167s-1.292,1.981-1.938,2.448c-0.647,0.469-1.353,0.702-2.118,0.702
			c-1.225,0-2.352-0.739-3.38-2.22c-1.029-1.479-1.543-3.291-1.543-5.434c0-3.197,1.093-5.8,3.278-7.807
			c2.185-2.007,5.03-3.01,8.534-3.01c2.823,0,5.157,0.879,7.003,2.64c1.845,1.761,2.768,4.001,2.768,6.723
			c0,2.823-0.714,5.106-2.143,6.85s-3.368,2.718-5.816,2.921L135.784,132.559z M132.697,117.098
			c-2.518,0.307-4.528,1.268-6.034,2.883c-1.505,1.617-2.258,3.632-2.258,6.047c0,1.599,0.34,2.959,1.021,4.082
			c0.68,1.122,1.36,1.684,2.041,1.684c0.306,0,0.625-0.115,0.957-0.344c0.332-0.23,0.702-0.677,1.11-1.34
			c0.408-0.664,0.791-1.514,1.148-2.551c0.357-1.038,0.718-2.458,1.084-4.262C132.131,121.495,132.441,119.428,132.697,117.098z"/>
		<path fill="#FFFFFF" d="M149.84,133.578v1.633h-1.888v-20.919h7.118v19.286H149.84z M149.84,122.66h3.393v-6.633h-3.393V122.66z
			 M149.84,124.369v7.525h3.393v-7.525H149.84z M170.403,122.149h-2.5v2.857h2.5v1.684h-2.5v5.612c0,1.548-0.162,2.504-0.485,2.871
			c-0.323,0.365-1.165,0.548-2.525,0.548c-0.494,0-1.573-0.042-3.24-0.128l-0.076-1.709c1.564,0.085,2.568,0.127,3.01,0.127
			c0.663,0,1.05-0.072,1.161-0.217c0.11-0.144,0.166-0.625,0.166-1.441v-5.663h-10.077v-1.684h10.077v-2.857h-10.077v-1.71h6.378
			v-3.393h-5.23v-1.658h5.23v-2.729h1.99v2.729h5.281v1.658h-5.281v3.393h6.2V122.149z M157.111,128.731l1.301-1.275
			c1.564,1.327,2.976,2.738,4.235,4.235l-1.352,1.25C159.918,131.325,158.523,129.922,157.111,128.731z"/>
		<path fill="#FFFFFF" d="M177.521,120.439v15.537h-1.965V123.68c-0.765,1.275-1.53,2.365-2.296,3.266l-1.021-1.811
			c2.789-3.352,4.72-7.365,5.792-12.042l1.888,0.434C179.375,116.129,178.575,118.434,177.521,120.439z M185.812,113.067h1.939
			c0,2.075,0.093,4.065,0.281,5.97l7.705-0.689l0.127,1.735l-7.628,0.688c0.221,1.668,0.519,3.236,0.893,4.707
			c0.374,1.472,0.752,2.688,1.135,3.648c0.382,0.961,0.773,1.79,1.173,2.487c0.399,0.698,0.744,1.204,1.033,1.519
			c0.289,0.314,0.519,0.472,0.689,0.472c0.204,0,0.378-0.124,0.523-0.37c0.144-0.246,0.297-0.723,0.459-1.429
			s0.328-1.679,0.498-2.921l1.658,0.586c-0.476,4.236-1.479,6.354-3.01,6.354c-0.408,0-0.859-0.158-1.352-0.473
			c-0.494-0.314-1.029-0.851-1.607-1.607c-0.578-0.756-1.123-1.684-1.633-2.78s-0.991-2.513-1.441-4.247
			c-0.451-1.735-0.795-3.657-1.033-5.767l-7.322,0.663l-0.127-1.734l7.271-0.663C185.889,117.345,185.812,115.295,185.812,113.067z
			 M189.409,114.088l1.25-1.225c1.599,1.242,3.027,2.509,4.286,3.801l-1.327,1.174C192.207,116.393,190.804,115.143,189.409,114.088
			z"/>
		<path fill="#FFFFFF" d="M218.391,134.268c-2.024,0.34-4.158,0.51-6.403,0.51c-3.113,0-5.362-0.361-6.748-1.084
			s-2.079-1.866-2.079-3.432c0-2.703,2.56-4.779,7.679-6.225c-0.239-0.781-0.558-1.326-0.957-1.633
			c-0.4-0.306-0.915-0.459-1.543-0.459c-1.021,0-2.173,0.494-3.457,1.479c-1.285,0.987-2.581,2.407-3.891,4.261l-1.556-0.995
			c2.092-2.908,3.801-5.851,5.127-8.827h-4.975v-1.633h5.664c0.391-0.952,0.774-1.99,1.148-3.112l1.837,0.434
			c-0.34,0.901-0.68,1.795-1.021,2.679h11.072v1.633h-11.761c-0.562,1.275-1.183,2.594-1.863,3.955l0.026,0.025
			c1.479-1.021,2.806-1.531,3.979-1.531c2.007,0,3.342,1.089,4.005,3.266c1.718-0.391,3.665-0.723,5.842-0.995l0.179,1.658
			c-2.313,0.306-4.201,0.63-5.664,0.97c0.221,1.275,0.332,2.934,0.332,4.975H211.4c0-1.837-0.077-3.333-0.229-4.49
			c-4.048,1.174-6.072,2.645-6.072,4.414c0,0.459,0.085,0.851,0.255,1.174c0.17,0.322,0.485,0.633,0.944,0.931
			c0.459,0.298,1.165,0.522,2.118,0.677c0.952,0.152,2.143,0.229,3.572,0.229c1.888,0,3.962-0.187,6.225-0.561L218.391,134.268z"/>
		<path fill="#FFFFFF" d="M223.901,119.267v-1.71h8.725v1.71H223.901z M224.615,115.645v-1.658h7.398v1.658H224.615z
			 M226.401,134.982v1.122h-1.786v-7.628h7.45v6.506H226.401z M224.794,122.863v-1.607h7.144v1.607H224.794z M224.794,126.486
			v-1.633h7.144v1.633H224.794z M226.401,133.375h3.954v-3.266h-3.954V133.375z M236.887,125.543h1.913
			c0,2.993-0.404,5.268-1.211,6.824c-0.808,1.557-2.13,2.742-3.967,3.559l-1.021-1.531c1.547-0.697,2.649-1.691,3.304-2.984
			S236.887,128.162,236.887,125.543z M246.658,114.904v1.633h-5.996v2.449h5.052v1.582h-12.042v-1.582h4.975v-2.449h-5.434v-1.633
			h5.434v-2.016h2.015v2.016H246.658z M246.224,122.48v5.104h-1.863v-3.521h-9.286v3.775h-1.862v-5.357H246.224z M240.407,125.543
			h1.914v7.5c0,0.442,0.055,0.701,0.166,0.778c0.11,0.076,0.489,0.114,1.135,0.114c0.612,0,0.982-0.182,1.11-0.549
			c0.127-0.365,0.217-1.56,0.268-3.584l1.786,0.256c-0.034,1.004-0.064,1.76-0.089,2.27c-0.025,0.511-0.085,1.013-0.179,1.506
			s-0.195,0.829-0.306,1.008c-0.111,0.178-0.306,0.344-0.586,0.497c-0.281,0.153-0.566,0.238-0.855,0.255
			c-0.289,0.018-0.714,0.025-1.275,0.025c-1.412,0-2.279-0.127-2.602-0.383c-0.323-0.254-0.485-0.961-0.485-2.117V125.543z"/>
		<path fill="#FFFFFF" d="M255.229,134.344c-1.225,0-2.415-0.65-3.572-1.951s-1.735-2.717-1.735-4.248
			c0-1.445,0.795-2.708,2.386-3.788c1.59-1.08,3.729-1.68,6.416-1.799c0.306-2.278,0.544-4.269,0.714-5.97h-7.679v-1.709h9.593
			v1.709c-0.222,2.16-0.451,4.15-0.689,5.97c1.888,0.068,3.776,0.392,5.664,0.97c0.068-1.582,0.102-3.784,0.102-6.607h1.862
			c0,3.18-0.042,5.587-0.127,7.219c1.462,0.545,2.899,1.268,4.312,2.17l-0.868,1.556c-1.123-0.697-2.313-1.31-3.571-1.837
			c-0.12,1.496-0.302,2.734-0.549,3.712s-0.612,1.808-1.097,2.487c-0.485,0.681-1.008,1.229-1.569,1.646
			c-0.561,0.417-1.335,0.88-2.321,1.391l-0.97-1.582c0.697-0.356,1.25-0.667,1.658-0.931s0.812-0.6,1.212-1.008
			c0.399-0.408,0.706-0.889,0.918-1.441c0.212-0.553,0.396-1.229,0.548-2.028c0.153-0.8,0.272-1.769,0.357-2.909
			c-2.007-0.646-3.946-1.002-5.817-1.07c-0.323,2.108-0.667,3.835-1.033,5.178c-0.366,1.344-0.765,2.369-1.199,3.074
			c-0.434,0.707-0.876,1.184-1.327,1.43C256.398,134.221,255.858,134.344,255.229,134.344z M258.47,124.318
			c-2.041,0.119-3.648,0.549-4.822,1.288c-1.174,0.739-1.761,1.586-1.761,2.538c0,0.986,0.383,1.956,1.148,2.908
			c0.765,0.953,1.496,1.43,2.194,1.43c0.408,0,0.778-0.218,1.11-0.651s0.685-1.271,1.059-2.513
			C257.772,128.077,258.129,126.41,258.47,124.318z"/>
		<path fill="#FFFFFF" d="M283.803,132.559v-2.756h-6.276c-0.221,2.416-0.646,4.447-1.276,6.098l-1.658-1.174
			c0.459-1.189,0.791-2.605,0.995-4.248c0.204-1.641,0.306-4.119,0.306-7.436v-2.041l-1.276-0.842
			c1.65-2.297,2.832-4.907,3.546-7.832l1.888,0.203c-0.204,0.816-0.34,1.344-0.408,1.582h4.133v1.607
			c-0.341,0.867-0.706,1.709-1.097,2.525h2.883v14.236c0,1.462-0.111,2.367-0.332,2.717c-0.221,0.348-0.774,0.522-1.658,0.522
			c-0.766,0-1.812-0.042-3.138-0.128l-0.051-1.658c1.445,0.086,2.279,0.128,2.5,0.128c0.459,0,0.727-0.063,0.804-0.191
			C283.764,133.744,283.803,133.307,283.803,132.559z M277.731,124.752c0,0.901-0.034,2.049-0.102,3.443h2.271v-3.443H277.731z
			 M277.731,123.17h2.168v-3.266h-2.168V123.17z M280.665,118.246c0.527-1.055,0.918-1.896,1.174-2.525h-2.755
			c-0.306,0.799-0.681,1.641-1.123,2.525H280.665z M281.558,123.17h2.245v-3.266h-2.245V123.17z M281.558,124.752v3.443h2.245
			v-3.443H281.558z M293.727,129.089h4.337v1.684h-4.337v5.103h-1.964v-5.103h-5.434v-1.684h5.434v-3.495h-2.704
			c-0.477,1.156-0.97,2.16-1.479,3.01l-1.709-0.816c1.105-1.819,1.913-3.715,2.423-5.688l1.761,0.459
			c-0.035,0.103-0.073,0.247-0.115,0.434c-0.042,0.188-0.085,0.357-0.127,0.511c-0.042,0.152-0.089,0.297-0.14,0.434h2.092v-1.863
			h1.964v1.863h3.853v1.658h-3.853V129.089z M290.487,115.593h-4.261v-1.684h11.455c-0.085,2.279-0.204,3.916-0.357,4.911
			c-0.153,0.994-0.387,1.671-0.702,2.027c-0.314,0.357-0.829,0.537-1.543,0.537c-0.901,0-2.007-0.043-3.316-0.129l-0.127-1.658
			c1.071,0.086,1.956,0.128,2.653,0.128c0.34,0,0.591-0.08,0.752-0.242c0.162-0.161,0.293-0.531,0.396-1.11
			c0.102-0.577,0.179-1.504,0.229-2.78h-3.316c-0.204,1.548-0.778,2.926-1.722,4.133c-0.944,1.208-2.198,2.169-3.763,2.884
			l-0.944-1.506C288.539,119.862,290.062,118.025,290.487,115.593z"/>
		<path fill="#FFFFFF" d="M317.656,114.828c-3.469,2.789-6.676,5.145-9.617,7.066c-1.021,0.663-1.663,1.118-1.926,1.365
			c-0.265,0.246-0.396,0.514-0.396,0.803c0,0.272,0.119,0.523,0.357,0.753s0.799,0.65,1.684,1.263
			c3.555,2.416,7.118,5.18,10.689,8.291l-1.377,1.378c-3.504-3.026-6.99-5.739-10.461-8.138c-1.36-0.936-2.219-1.599-2.576-1.99
			c-0.357-0.391-0.535-0.91-0.535-1.557c0-0.68,0.187-1.22,0.561-1.619c0.374-0.4,1.293-1.076,2.756-2.029
			c3.18-2.107,6.378-4.447,9.592-7.016L317.656,114.828z"/>
		<path fill="#FFFFFF" d="M334.418,120.414h-1.709l1.861-6.301h2.398L334.418,120.414z M339.163,120.414h-1.71l1.889-6.301h2.373
			L339.163,120.414z"/>
		<path fill="#FFFFFF" d="M350.566,124.113v-1.76H356v-0.025v-5.408h-2.092c-0.545,1.734-1.174,3.291-1.888,4.668l-1.606-0.663
			c1.207-2.381,2.134-5.17,2.78-8.368l1.735,0.281c-0.137,0.731-0.315,1.521-0.537,2.373h7.425v1.709h-3.853v5.408v0.025h4.234v1.76
			h-4.336c-0.068,0.527-0.128,0.944-0.18,1.25c1.719,2.586,3.274,5.069,4.67,7.45l-1.582,1.071
			c-1.141-1.973-2.373-4.014-3.699-6.123c-0.545,1.65-1.285,3.146-2.22,4.49c-0.936,1.344-1.999,2.406-3.188,3.189l-1.148-1.557
			c1.496-1.037,2.713-2.402,3.648-4.095c0.935-1.692,1.514-3.584,1.734-5.677H350.566z M372.915,114.674v20.691h-1.913v-1.607
			h-6.123v1.607h-1.863v-20.691H372.915z M364.879,132.048h6.123v-15.639h-6.123V132.048z"/>
		<path fill="#FFFFFF" d="M395.85,135.467c-1.395,0-3.146-0.076-5.256-0.23l-0.051-1.785c2.024,0.153,3.521,0.229,4.49,0.229
			c0.34,0,0.608-0.331,0.804-0.995c0.195-0.663,0.378-2.182,0.549-4.554c0.169-2.372,0.314-5.88,0.434-10.523h-7.526
			c-1.037,2.433-2.211,4.448-3.521,6.046l-0.688-0.663v10.46h-6.71v1.965h-1.913v-19.058h2.807c0.578-1.276,1.02-2.466,1.326-3.571
			l1.888,0.28c-0.323,1.122-0.723,2.22-1.198,3.291h3.801v5.204c1.803-2.533,3.087-5.484,3.852-8.853l1.889,0.255
			c-0.238,1.004-0.52,1.965-0.842,2.883h8.801c-0.068,3.13-0.136,5.745-0.203,7.846c-0.068,2.1-0.162,3.898-0.281,5.396
			s-0.242,2.653-0.369,3.47c-0.129,0.816-0.303,1.449-0.523,1.9c-0.221,0.45-0.443,0.73-0.664,0.842
			C396.521,135.411,396.224,135.467,395.85,135.467z M378.374,123.986h4.848v-5.919h-4.848V123.986z M378.374,125.645v6.148h4.848
			v-6.148H378.374z M388.527,121.818l1.633-0.894c1.43,2.16,2.654,4.438,3.674,6.837l-1.684,0.766
			C391.079,126.078,389.871,123.842,388.527,121.818z"/>
		<path fill="#FFFFFF" d="M407.279,123.936l1.734-0.867c1.105,2.414,2.398,4.303,3.878,5.663c1.479-1.36,2.772-3.249,3.878-5.663
			l1.785,0.791c-1.122,2.482-2.508,4.506-4.158,6.071c2.126,1.497,5.324,2.806,9.593,3.929l-0.587,1.76
			c-4.541-1.139-8.045-2.618-10.511-4.438c-2.466,1.82-5.97,3.3-10.511,4.438l-0.587-1.76c4.269-1.123,7.466-2.432,9.593-3.929
			C409.771,128.383,408.401,126.385,407.279,123.936z M402.1,115.645h9.771v-3.139h2.041v3.139h9.771v1.734H402.1V115.645z
			 M402.254,123.782c3.01-1.667,5.391-3.631,7.143-5.894l1.352,1.174c-1.785,2.433-4.32,4.533-7.602,6.301L402.254,123.782z
			 M422.331,125.363c-2.229-2.193-4.712-4.242-7.45-6.147l1.123-1.454c2.857,1.973,5.375,4.048,7.552,6.225L422.331,125.363z"/>
		<path fill="#FFFFFF" d="M430.801,124.318c-1.377-1.327-2.9-2.611-4.566-3.853l1.148-1.378c1.717,1.275,3.248,2.551,4.592,3.827
			L430.801,124.318z M432.587,127.559c-0.987,3.01-2.331,5.705-4.031,8.086l-1.581-1.045c1.633-2.348,2.941-4.916,3.928-7.705
			L432.587,127.559z M427.434,114.854l1.148-1.378c1.462,1.105,2.848,2.271,4.158,3.495l-1.174,1.377
			C430.291,117.158,428.913,115.992,427.434,114.854z M435.035,124.701h1.914c0,3.027-0.408,5.446-1.225,7.258
			c-0.816,1.811-2.084,3.185-3.801,4.12l-1.199-1.454c1.496-0.816,2.59-2.012,3.277-3.584
			C434.691,129.467,435.035,127.354,435.035,124.701z M443.43,118.322l1.633-0.867c1.785,2.059,3.393,4.125,4.821,6.199
			l-1.582,0.944c-0.323-0.476-0.782-1.105-1.378-1.888c-4.949,0.629-9.711,1.012-14.286,1.148l-0.077-1.71
			c0.613-0.017,1.565-0.06,2.857-0.128c0.834-1.598,1.65-3.4,2.449-5.408h-4.949v-1.684h7.066v-2.271h2.041v2.271h7.527v1.684
			h-9.594c-0.611,1.582-1.395,3.342-2.347,5.281c2.942-0.204,5.655-0.442,8.139-0.715
			C445.002,120.211,444.229,119.258,443.43,118.322z M439.5,135.492v-10.715h1.914v10.715H439.5z M444.398,124.521h1.914v8.675
			c0,0.425,0.037,0.676,0.114,0.753c0.077,0.076,0.336,0.114,0.778,0.114c0.578,0,0.922-0.204,1.033-0.612
			c0.11-0.408,0.208-1.837,0.293-4.286l1.684,0.179c-0.017,0.731-0.033,1.293-0.051,1.684c-0.018,0.392-0.043,0.834-0.076,1.326
			c-0.034,0.494-0.064,0.855-0.09,1.085s-0.076,0.493-0.152,0.791s-0.145,0.501-0.205,0.612c-0.059,0.11-0.165,0.242-0.318,0.395
			c-0.152,0.154-0.289,0.247-0.408,0.281s-0.302,0.076-0.549,0.127c-0.246,0.052-0.477,0.077-0.688,0.077c-0.213,0-0.497,0-0.854,0
			c-1.071,0-1.744-0.099-2.016-0.294s-0.408-0.692-0.408-1.492V124.521z"/>
		<path fill="#FFFFFF" d="M452.869,118.527h4.489v-4.593h1.913v4.593h9.185v-4.593h2.016v4.593h4.49v1.785h-4.49v1.633
			c0,4.252-0.894,7.318-2.679,9.197c-1.786,1.879-4.891,3.031-9.312,3.457l-0.331-1.786c3.979-0.408,6.692-1.378,8.138-2.908
			s2.169-4.185,2.169-7.96v-1.633h-9.185v5.791h-1.913v-5.791h-4.489V118.527z"/>
		<path fill="#FFFFFF" d="M481.85,133.578h-2.041v-18.011h19.236v18.011H481.85z M481.85,131.768h15.154v-14.389H481.85V131.768z"/>
		<path fill="#FFFFFF" d="M505.933,116.895l0.919-1.735c2.721,1.36,5.322,2.806,7.807,4.337l-0.995,1.734
			C511.316,119.769,508.739,118.322,505.933,116.895z M525.653,117.889c-1.718,9.797-8.002,15.172-18.853,16.123l-0.307-1.912
			c4.982-0.46,8.899-1.893,11.748-4.299s4.698-5.847,5.549-10.32L525.653,117.889z"/>
		<path fill="#FFFFFF" d="M537.439,120.414h-1.709l1.862-6.301h2.398L537.439,120.414z M542.186,120.414h-1.71l1.888-6.301h2.373
			L542.186,120.414z"/>
		<path fill="#FFFFFF" d="M547.287,125.109c1.666-2.348,3.835-3.521,6.506-3.521c1.938,0,3.725,0.74,5.357,2.22
			c1.343,1.225,2.704,1.837,4.082,1.837c0.986,0,1.87-0.221,2.652-0.663c0.783-0.442,1.564-1.174,2.348-2.194l1.505,1.25
			c-1.667,2.348-3.835,3.521-6.505,3.521c-1.939,0-3.725-0.74-5.357-2.221c-1.344-1.225-2.705-1.836-4.082-1.836
			c-1.004,0-1.893,0.221-2.666,0.663c-0.774,0.442-1.561,1.183-2.36,2.22L547.287,125.109z"/>
	</g>
</g>
<g>
	<g>
		<path fill="#0099D9" d="M171.56,52.479h-6.746v1.777h6.221v5.089h-6.1c1.562,1.32,3.218,2.801,4.968,4.443
			c1.292-2.611,2.181-5.783,2.666-9.513c0.485-3.729,0.727-9.405,0.727-17.026c5.951-0.485,10.879-1.427,14.784-2.828l1.575,5.574
			c-3.178,1.024-6.719,1.792-10.624,2.303c-0.054,2.02-0.108,3.528-0.162,4.524h10.987v5.574h-2.828v19.066h-5.978V52.398h-2.545
			c-0.404,4.579-1.098,8.308-2.08,11.189c-0.983,2.882-2.377,5.547-4.181,7.998l-3.756-3.918l-0.889,1.05
			c-0.754-0.916-1.683-1.952-2.787-3.11v6.221h-6.1v-6.746c-1.266,2.046-2.625,3.823-4.08,5.332l-3.07-4.807
			c2.208-1.858,4.025-3.945,5.453-6.261h-4.363v-5.089h6.059v-1.777h-6.059v-4.928h3.191c-0.377-1.535-0.782-3.07-1.212-4.604
			h-1.777v-5.09h5.857V34.06h6.1v3.797h6.907v5.09h-1.697c-0.323,1.292-0.822,2.827-1.494,4.604h3.029V52.479z M161.098,47.551h2.02
			c0.619-1.562,1.131-3.096,1.535-4.604h-4.686C160.505,44.993,160.882,46.528,161.098,47.551z"/>
		<path fill="#0099D9" d="M195.715,54.822v-5.089h3.999c0.026-0.511,0.04-1.319,0.04-2.424v-1.414h-3.635v-5.413h3.635v-5.816h6.059
			v5.816h3.555v5.413h-3.555v1.09c0,1.239-0.014,2.155-0.041,2.747h3.676v5.089h-4.282c1.992,2.478,3.648,4.646,4.968,6.503
			l-3.635,3.999c-1.616-2.585-2.545-4.066-2.788-4.443c-1.077,4.336-2.841,7.822-5.292,10.462l-3.433-5.453
			c2.369-3.016,3.823-6.706,4.362-11.068H195.715z M227.262,71.061h-1.212h-1.171c-2.127-0.027-3.447-0.229-3.958-0.606
			c-0.512-0.377-0.768-1.307-0.768-2.787v-7.473h-1.05c-0.916,6.086-5.009,9.91-12.28,11.472l-1.858-5.009
			c2.585-0.511,4.564-1.292,5.938-2.343c1.373-1.05,2.248-2.424,2.625-4.12h-2.868V35.433h20.964v24.762h-5.857v4.483
			c0,0.62,0.02,0.977,0.061,1.071s0.182,0.155,0.424,0.182c0.054,0,0.147,0.007,0.283,0.02c0.134,0.014,0.215,0.02,0.242,0.02
			c0.054,0,0.142-0.006,0.263-0.02c0.121-0.013,0.208-0.02,0.263-0.02c0.404-0.027,0.646-0.235,0.727-0.626
			c0.081-0.39,0.134-1.69,0.162-3.898l5.372,0.687c-0.054,1.266-0.095,2.235-0.121,2.908c-0.027,0.673-0.101,1.387-0.222,2.141
			c-0.121,0.753-0.216,1.292-0.283,1.616c-0.067,0.323-0.242,0.673-0.525,1.05c-0.283,0.377-0.525,0.612-0.727,0.707
			c-0.202,0.094-0.565,0.202-1.09,0.323c-0.525,0.121-0.997,0.188-1.414,0.202C228.763,71.054,228.124,71.061,227.262,71.061z
			 M216.639,42.624h8.725v-2.101h-8.725V42.624z M216.639,46.865v2.101h8.725v-2.101H216.639z M216.639,53.207v2.06h8.725v-2.06
			H216.639z"/>
		<path fill="#0099D9" d="M269.191,47.875v2.747h-22.782v-2.747c-1.858,1.186-3.837,2.276-5.938,3.272l-2.343-5.251
			c6.005-3.097,11.189-6.8,15.552-11.108h8.24c4.363,4.309,9.546,8.012,15.552,11.108l-2.343,5.251
			C273.028,50.15,271.049,49.06,269.191,47.875z M240.229,58.579v-5.251h35.143v5.251h-5.13c1.939,3.932,3.783,7.85,5.534,11.754
			l-5.695,1.898c-0.862-1.939-1.387-3.11-1.575-3.514c-9.695,1.077-18.622,1.737-26.781,1.979l-0.363-5.251
			c2.531-0.107,4.443-0.188,5.736-0.242c1.023-1.804,2.154-4.012,3.393-6.625H240.229z M265.677,45.532
			c-2.882-2.046-5.507-4.282-7.877-6.706c-2.37,2.424-4.996,4.659-7.876,6.706H265.677z M266.242,63.79
			c-0.189-0.376-0.479-0.982-0.869-1.817c-0.391-0.834-0.68-1.455-0.868-1.858l4.443-1.535h-11.593
			c-0.862,1.993-1.858,4.053-2.989,6.18C259.698,64.382,263.657,64.059,266.242,63.79z"/>
		<path fill="#0099D9" d="M312.291,64.799c3.204,1.05,5.856,2.047,7.957,2.989l-2.949,4.443c-3.608-1.751-7.998-3.434-13.168-5.049
			l1.172-2.383h-8.16l1.171,2.02c-3.367,2.101-7.931,3.823-13.693,5.17l-2.383-4.605c3.204-0.781,6.099-1.642,8.685-2.585h-5.938
			V45.774h32.477v19.025H312.291z M292.902,44.684H286.6v-9.452h29.246v9.452H292.902z M291.447,51.349h19.551v-1.535h-19.551
			V51.349z M291.447,54.661v1.575h19.551v-1.575H291.447z M291.447,59.548v1.575h19.551v-1.575H291.447z M292.902,41.331h16.642
			v-1.616h-16.642V41.331z"/>
		<path fill="#0099D9" d="M327.115,65.365l-2.02-4.767c2.692-0.781,5.021-1.71,6.988-2.787h-5.816v-4.12h11.148l0.727-0.849h-2.141
			h-6.423V41.735h4.847v-1.01h-8.158v-4.484h8.158V34.02h6.262v2.222h7.917V34.02h6.261v2.222h8.16v4.484h-8.16v1.01h4.848v11.108
			h-14.945l-0.606,0.849h18.864v4.12h-5.816c1.885,1.023,4.214,1.953,6.988,2.787l-2.021,4.767c-0.378-0.135-1.44-0.552-3.19-1.252
			c-0.162,2.127-0.459,3.702-0.889,4.726c-0.432,1.023-1.031,1.703-1.798,2.04c-0.768,0.336-1.933,0.505-3.494,0.505
			c-2.316,0-4.592-0.067-6.827-0.202l-0.282-5.211c2.154,0.162,3.958,0.243,5.413,0.243c0.484,0,0.787-0.081,0.908-0.243
			c0.121-0.161,0.236-0.659,0.344-1.494h-6.746c-2.693,3.581-7.998,6.099-15.915,7.553l-2.505-4.726
			c4.955-0.672,8.551-1.616,10.785-2.827h-5.17v-1.495C331.303,63.736,329.404,64.531,327.115,65.365z M336.002,45.936h17.289
			v-1.171h-17.289V45.936z M336.002,48.561v1.131h17.289v-1.131H336.002z M341.738,58.458h6.139
			c-0.026,0.351-0.094,0.849-0.201,1.495h3.756c-1.104-0.834-1.979-1.548-2.625-2.141h-8.281c-0.646,0.593-1.521,1.306-2.625,2.141
			h3.635C341.617,59.629,341.684,59.131,341.738,58.458z M340.688,41.735h7.917v-1.01h-7.917V41.735z"/>
		<path fill="#0099D9" d="M407.215,65.365l-1.857,5.332c-5.521-1.4-10.18-3.003-13.977-4.807v5.695h-6.624V65.89
			c-3.798,1.804-8.456,3.406-13.977,4.807l-1.858-5.332c5.467-0.996,9.924-2.087,13.371-3.272h-12.482v-4.484h14.946v-1.333h-12.36
			V48.44l-3.878-2.1c2.262-3.797,4.052-7.823,5.372-12.078l5.938,0.889c-0.054,0.243-0.242,0.903-0.564,1.979h7.311
			c0.296-0.834,0.592-1.791,0.889-2.868l6.262,0.566c-0.055,0.188-0.129,0.438-0.223,0.747c-0.095,0.31-0.176,0.593-0.242,0.848
			c-0.068,0.256-0.142,0.492-0.223,0.707h11.512v4.484h-12.077v1.333h10.866v3.433h-10.866v1.333h10.866v3.474h-10.866v1.292h12.077
			v3.797h-13.168v1.333h14.542v4.484h-12.077C397.292,63.278,401.748,64.369,407.215,65.365z M385.888,42.947v-1.333h-7.23v1.333
			H385.888z M385.888,47.713V46.38h-7.23v1.333H385.888z M385.888,51.187h-7.23v1.292h7.23V51.187z"/>
		<path fill="#0099D9" d="M420.102,60.316v2.141h-6.06V40.685h14.138v-6.423h6.625v6.423h14.138v21.772h-6.06v-2.141h-8.078V71.99
			h-6.625V60.316H420.102z M420.102,55.064h8.078v-8.967h-8.078V55.064z M442.883,55.064v-8.967h-8.078v8.967H442.883z"/>
	</g>
	<g>
		<linearGradient id="SVGID_1_" gradientUnits="userSpaceOnUse" x1="300.2539" y1="33.8735" x2="300.2539" y2="67.0584">
			<stop  offset="0.5443" style="stop-color:#0099D9"/>
			<stop  offset="1" style="stop-color:#036EB8"/>
		</linearGradient>
		<path fill="url(#SVGID_1_)" d="M171.56,52.479h-6.746v1.777h6.221v5.089h-6.1c1.562,1.32,3.218,2.801,4.968,4.443
			c1.292-2.611,2.181-5.783,2.666-9.513c0.485-3.729,0.727-9.405,0.727-17.026c5.951-0.485,10.879-1.427,14.784-2.828l1.575,5.574
			c-3.178,1.024-6.719,1.792-10.624,2.303c-0.054,2.02-0.108,3.528-0.162,4.524h10.987v5.574h-2.828v19.066h-5.978V52.398h-2.545
			c-0.404,4.579-1.098,8.308-2.08,11.189c-0.983,2.882-2.377,5.547-4.181,7.998l-3.756-3.918l-0.889,1.05
			c-0.754-0.916-1.683-1.952-2.787-3.11v6.221h-6.1v-6.746c-1.266,2.046-2.625,3.823-4.08,5.332l-3.07-4.807
			c2.208-1.858,4.025-3.945,5.453-6.261h-4.363v-5.089h6.059v-1.777h-6.059v-4.928h3.191c-0.377-1.535-0.782-3.07-1.212-4.604
			h-1.777v-5.09h5.857V34.06h6.1v3.797h6.907v5.09h-1.697c-0.323,1.292-0.822,2.827-1.494,4.604h3.029V52.479z M161.098,47.551h2.02
			c0.619-1.562,1.131-3.096,1.535-4.604h-4.686C160.505,44.993,160.882,46.528,161.098,47.551z"/>
		<linearGradient id="SVGID_2_" gradientUnits="userSpaceOnUse" x1="300.2539" y1="33.8735" x2="300.2539" y2="67.0584">
			<stop  offset="0.5443" style="stop-color:#0099D9"/>
			<stop  offset="1" style="stop-color:#036EB8"/>
		</linearGradient>
		<path fill="url(#SVGID_2_)" d="M195.715,54.822v-5.089h3.999c0.026-0.511,0.04-1.319,0.04-2.424v-1.414h-3.635v-5.413h3.635
			v-5.816h6.059v5.816h3.555v5.413h-3.555v1.09c0,1.239-0.014,2.155-0.041,2.747h3.676v5.089h-4.282
			c1.992,2.478,3.648,4.646,4.968,6.503l-3.635,3.999c-1.616-2.585-2.545-4.066-2.788-4.443c-1.077,4.336-2.841,7.822-5.292,10.462
			l-3.433-5.453c2.369-3.016,3.823-6.706,4.362-11.068H195.715z M227.262,71.061h-1.212h-1.171
			c-2.127-0.027-3.447-0.229-3.958-0.606c-0.512-0.377-0.768-1.307-0.768-2.787v-7.473h-1.05c-0.916,6.086-5.009,9.91-12.28,11.472
			l-1.858-5.009c2.585-0.511,4.564-1.292,5.938-2.343c1.373-1.05,2.248-2.424,2.625-4.12h-2.868V35.433h20.964v24.762h-5.857v4.483
			c0,0.62,0.02,0.977,0.061,1.071s0.182,0.155,0.424,0.182c0.054,0,0.147,0.007,0.283,0.02c0.134,0.014,0.215,0.02,0.242,0.02
			c0.054,0,0.142-0.006,0.263-0.02c0.121-0.013,0.208-0.02,0.263-0.02c0.404-0.027,0.646-0.235,0.727-0.626
			c0.081-0.39,0.134-1.69,0.162-3.898l5.372,0.687c-0.054,1.266-0.095,2.235-0.121,2.908c-0.027,0.673-0.101,1.387-0.222,2.141
			c-0.121,0.753-0.216,1.292-0.283,1.616c-0.067,0.323-0.242,0.673-0.525,1.05c-0.283,0.377-0.525,0.612-0.727,0.707
			c-0.202,0.094-0.565,0.202-1.09,0.323c-0.525,0.121-0.997,0.188-1.414,0.202C228.763,71.054,228.124,71.061,227.262,71.061z
			 M216.639,42.624h8.725v-2.101h-8.725V42.624z M216.639,46.865v2.101h8.725v-2.101H216.639z M216.639,53.207v2.06h8.725v-2.06
			H216.639z"/>
		<linearGradient id="SVGID_3_" gradientUnits="userSpaceOnUse" x1="300.2539" y1="33.8735" x2="300.2539" y2="67.0584">
			<stop  offset="0.5443" style="stop-color:#0099D9"/>
			<stop  offset="1" style="stop-color:#036EB8"/>
		</linearGradient>
		<path fill="url(#SVGID_3_)" d="M269.191,47.875v2.747h-22.782v-2.747c-1.858,1.186-3.837,2.276-5.938,3.272l-2.343-5.251
			c6.005-3.097,11.189-6.8,15.552-11.108h8.24c4.363,4.309,9.546,8.012,15.552,11.108l-2.343,5.251
			C273.028,50.15,271.049,49.06,269.191,47.875z M240.229,58.579v-5.251h35.143v5.251h-5.13c1.939,3.932,3.783,7.85,5.534,11.754
			l-5.695,1.898c-0.862-1.939-1.387-3.11-1.575-3.514c-9.695,1.077-18.622,1.737-26.781,1.979l-0.363-5.251
			c2.531-0.107,4.443-0.188,5.736-0.242c1.023-1.804,2.154-4.012,3.393-6.625H240.229z M265.677,45.532
			c-2.882-2.046-5.507-4.282-7.877-6.706c-2.37,2.424-4.996,4.659-7.876,6.706H265.677z M266.242,63.79
			c-0.189-0.376-0.479-0.982-0.869-1.817c-0.391-0.834-0.68-1.455-0.868-1.858l4.443-1.535h-11.593
			c-0.862,1.993-1.858,4.053-2.989,6.18C259.698,64.382,263.657,64.059,266.242,63.79z"/>
		<linearGradient id="SVGID_4_" gradientUnits="userSpaceOnUse" x1="300.2539" y1="33.8735" x2="300.2539" y2="67.0584">
			<stop  offset="0.5443" style="stop-color:#0099D9"/>
			<stop  offset="1" style="stop-color:#036EB8"/>
		</linearGradient>
		<path fill="url(#SVGID_4_)" d="M312.291,64.799c3.204,1.05,5.856,2.047,7.957,2.989l-2.949,4.443
			c-3.608-1.751-7.998-3.434-13.168-5.049l1.172-2.383h-8.16l1.171,2.02c-3.367,2.101-7.931,3.823-13.693,5.17l-2.383-4.605
			c3.204-0.781,6.099-1.642,8.685-2.585h-5.938V45.774h32.477v19.025H312.291z M292.902,44.684H286.6v-9.452h29.246v9.452H292.902z
			 M291.447,51.349h19.551v-1.535h-19.551V51.349z M291.447,54.661v1.575h19.551v-1.575H291.447z M291.447,59.548v1.575h19.551
			v-1.575H291.447z M292.902,41.331h16.642v-1.616h-16.642V41.331z"/>
		<linearGradient id="SVGID_5_" gradientUnits="userSpaceOnUse" x1="300.2539" y1="33.8735" x2="300.2539" y2="67.0584">
			<stop  offset="0.5443" style="stop-color:#0099D9"/>
			<stop  offset="1" style="stop-color:#036EB8"/>
		</linearGradient>
		<path fill="url(#SVGID_5_)" d="M327.115,65.365l-2.02-4.767c2.692-0.781,5.021-1.71,6.988-2.787h-5.816v-4.12h11.148l0.727-0.849
			h-2.141h-6.423V41.735h4.847v-1.01h-8.158v-4.484h8.158V34.02h6.262v2.222h7.917V34.02h6.261v2.222h8.16v4.484h-8.16v1.01h4.848
			v11.108h-14.945l-0.606,0.849h18.864v4.12h-5.816c1.885,1.023,4.214,1.953,6.988,2.787l-2.021,4.767
			c-0.378-0.135-1.44-0.552-3.19-1.252c-0.162,2.127-0.459,3.702-0.889,4.726c-0.432,1.023-1.031,1.703-1.798,2.04
			c-0.768,0.336-1.933,0.505-3.494,0.505c-2.316,0-4.592-0.067-6.827-0.202l-0.282-5.211c2.154,0.162,3.958,0.243,5.413,0.243
			c0.484,0,0.787-0.081,0.908-0.243c0.121-0.161,0.236-0.659,0.344-1.494h-6.746c-2.693,3.581-7.998,6.099-15.915,7.553
			l-2.505-4.726c4.955-0.672,8.551-1.616,10.785-2.827h-5.17v-1.495C331.303,63.736,329.404,64.531,327.115,65.365z M336.002,45.936
			h17.289v-1.171h-17.289V45.936z M336.002,48.561v1.131h17.289v-1.131H336.002z M341.738,58.458h6.139
			c-0.026,0.351-0.094,0.849-0.201,1.495h3.756c-1.104-0.834-1.979-1.548-2.625-2.141h-8.281c-0.646,0.593-1.521,1.306-2.625,2.141
			h3.635C341.617,59.629,341.684,59.131,341.738,58.458z M340.688,41.735h7.917v-1.01h-7.917V41.735z"/>
		<linearGradient id="SVGID_6_" gradientUnits="userSpaceOnUse" x1="300.2539" y1="33.8735" x2="300.2539" y2="67.0584">
			<stop  offset="0.5443" style="stop-color:#0099D9"/>
			<stop  offset="1" style="stop-color:#036EB8"/>
		</linearGradient>
		<path fill="url(#SVGID_6_)" d="M407.215,65.365l-1.857,5.332c-5.521-1.4-10.18-3.003-13.977-4.807v5.695h-6.624V65.89
			c-3.798,1.804-8.456,3.406-13.977,4.807l-1.858-5.332c5.467-0.996,9.924-2.087,13.371-3.272h-12.482v-4.484h14.946v-1.333h-12.36
			V48.44l-3.878-2.1c2.262-3.797,4.052-7.823,5.372-12.078l5.938,0.889c-0.054,0.243-0.242,0.903-0.564,1.979h7.311
			c0.296-0.834,0.592-1.791,0.889-2.868l6.262,0.566c-0.055,0.188-0.129,0.438-0.223,0.747c-0.095,0.31-0.176,0.593-0.242,0.848
			c-0.068,0.256-0.142,0.492-0.223,0.707h11.512v4.484h-12.077v1.333h10.866v3.433h-10.866v1.333h10.866v3.474h-10.866v1.292h12.077
			v3.797h-13.168v1.333h14.542v4.484h-12.077C397.292,63.278,401.748,64.369,407.215,65.365z M385.888,42.947v-1.333h-7.23v1.333
			H385.888z M385.888,47.713V46.38h-7.23v1.333H385.888z M385.888,51.187h-7.23v1.292h7.23V51.187z"/>
		<linearGradient id="SVGID_7_" gradientUnits="userSpaceOnUse" x1="300.2539" y1="33.8735" x2="300.2539" y2="67.0584">
			<stop  offset="0.5443" style="stop-color:#0099D9"/>
			<stop  offset="1" style="stop-color:#036EB8"/>
		</linearGradient>
		<path fill="url(#SVGID_7_)" d="M420.102,60.316v2.141h-6.06V40.685h14.138v-6.423h6.625v6.423h14.138v21.772h-6.06v-2.141h-8.078
			V71.99h-6.625V60.316H420.102z M420.102,55.064h8.078v-8.967h-8.078V55.064z M442.883,55.064v-8.967h-8.078v8.967H442.883z"/>
	</g>
</g>
<linearGradient id="SVGID_8_" gradientUnits="userSpaceOnUse" x1="-520.6655" y1="239.7021" x2="-520.6655" y2="287.3574" gradientTransform="matrix(0.9848 0.1736 -0.1736 0.9848 18.5959 116.7982)">
	<stop  offset="0.5443" style="stop-color:#0099D9"/>
	<stop  offset="1" style="stop-color:#036EB8"/>
</linearGradient>
<path fill="url(#SVGID_8_)" d="M-576.941,292.503l0.001,7.332l-21.353,0.002l6.783-8.832c0.399-0.53,0.844-1.124,1.336-1.771
	c0.493-0.651,0.991-1.355,1.498-2.122c0.506-0.764,1.01-1.572,1.518-2.418c0.504-0.85,0.956-1.705,1.356-2.567
	c0.423-0.901,0.772-1.805,1.038-2.722c0.267-0.915,0.401-1.773,0.398-2.569c0.001-1.167-0.3-2.172-0.898-3.019
	c-0.599-0.848-1.311-1.272-2.136-1.271c-0.903,0-1.616,0.366-2.135,1.098c-0.518,0.732-0.779,1.728-0.779,2.991
	c0.001,0.036,0,0.068,0.003,0.101c-0.001,0.168,0.003,0.342,0.018,0.525c0.014,0.183,0.047,0.425,0.101,0.723h-7.623
	c0-3.957,0.996-7.086,2.992-9.379c1.997-2.296,4.524-3.441,7.583-3.444c2.875,0.004,5.26,1.14,7.164,3.42
	c1.902,2.276,2.854,5.131,2.854,8.555c0.001,1.566-0.199,3.02-0.599,4.366c-0.398,1.347-1.037,2.669-1.916,3.964
	c-0.211,0.302-0.438,0.61-0.679,0.926c-0.238,0.316-0.493,0.623-0.757,0.923l-4.471,5.188L-576.941,292.503z M-575.923,275.961
	c0.492-2.041,1.256-3.88,2.292-5.511c1.092-1.696,2.328-2.977,3.711-3.841c1.386-0.868,2.902-1.294,4.554-1.298
	c1.648-0.001,3.167,0.432,4.548,1.297c1.384,0.866,2.607,2.148,3.671,3.841c1.064,1.631,1.837,3.467,2.316,5.515
	c0.478,2.043,0.719,4.448,0.718,7.211c0,2.726-0.24,5.121-0.718,7.181c-0.478,2.061-1.25,3.924-2.315,5.587
	c-1.063,1.699-2.287,2.969-3.671,3.818c-1.383,0.849-2.899,1.272-4.549,1.272c-1.65-0.002-3.167-0.426-4.551-1.272
	c-1.384-0.849-2.621-2.119-3.71-3.818c-1.04-1.661-1.802-3.524-2.294-5.586c-0.496-2.062-0.74-4.458-0.74-7.185
	C-576.661,280.409-576.417,278.009-575.923,275.961z M-568.56,290.659c0.825,1.893,1.888,2.842,3.19,2.841
	c1.306-0.002,2.364-0.949,3.175-2.846c0.812-1.894,1.218-4.358,1.217-7.382c0.001-3.06-0.404-5.537-1.216-7.436
	c-0.811-1.896-1.869-2.844-3.173-2.841c-1.304,0.001-2.37,0.946-3.193,2.842c-0.826,1.897-1.237,4.373-1.235,7.435
	C-569.798,286.299-569.386,288.76-568.56,290.659z M-533.039,292.503l0,7.331h-21.353l6.783-8.829
	c0.401-0.533,0.846-1.124,1.338-1.771c0.492-0.651,0.991-1.354,1.496-2.122c0.506-0.764,1.011-1.572,1.517-2.419
	c0.506-0.846,0.958-1.702,1.359-2.568c0.424-0.899,0.769-1.805,1.038-2.72c0.266-0.916,0.399-1.771,0.398-2.567
	c0.001-1.166-0.298-2.169-0.896-3.019c-0.6-0.85-1.313-1.274-2.137-1.274c-0.904,0.002-1.614,0.368-2.135,1.1
	c-0.518,0.732-0.779,1.729-0.779,2.993c0.001,0.032,0.002,0.064,0.001,0.099c0,0.165,0.005,0.341,0.019,0.526
	c0.014,0.182,0.047,0.42,0.101,0.719l-7.625,0.001c0-3.957,0.997-7.084,2.995-9.377c1.996-2.298,4.523-3.446,7.581-3.444
	c2.877,0.002,5.264,1.137,7.167,3.418c1.901,2.277,2.853,5.131,2.853,8.558c0,1.562-0.199,3.017-0.6,4.363
	c-0.398,1.347-1.038,2.672-1.915,3.968c-0.212,0.299-0.438,0.607-0.679,0.922c-0.238,0.314-0.491,0.624-0.757,0.924l-4.471,5.186
	L-533.039,292.503z M-511.088,292.503l0,7.332l-21.353,0.002l6.784-8.832c0.401-0.53,0.845-1.122,1.338-1.771
	c0.494-0.649,0.992-1.354,1.498-2.118c0.504-0.766,1.01-1.572,1.516-2.419c0.506-0.851,0.956-1.708,1.357-2.57
	c0.424-0.903,0.771-1.808,1.038-2.719c0.265-0.916,0.397-1.774,0.399-2.571c-0.002-1.165-0.301-2.17-0.898-3.021
	c-0.598-0.844-1.312-1.27-2.137-1.27c-0.903-0.001-1.616,0.365-2.136,1.099c-0.519,0.73-0.776,1.728-0.778,2.993
	c0,0.032,0,0.065,0,0.1c0,0.167,0.006,0.339,0.021,0.524c0.012,0.182,0.045,0.423,0.098,0.724l-7.621-0.001
	c-0.001-3.958,0.998-7.088,2.993-9.382c1.995-2.295,4.522-3.439,7.584-3.441c2.873,0.002,5.261,1.139,7.162,3.42
	c1.902,2.276,2.854,5.131,2.854,8.553c-0.001,1.565-0.201,3.021-0.6,4.366c-0.399,1.351-1.037,2.668-1.916,3.966
	c-0.213,0.299-0.439,0.608-0.677,0.925c-0.24,0.313-0.494,0.622-0.761,0.922l-4.47,5.188L-511.088,292.503z M-507.299,284.778
	l1.113,0.22c-0.091,0.291-0.235,0.719-0.431,1.291l8.991-0.001l-0.002,0.994l-4.678-0.001l-0.001,2.532l4.237-0.001l-0.002,0.993
	l-4.233-0.002l0,3.038l5.377-0.002v1.007l-5.377,0.002l-0.001,3.393h-1.184l0.001-3.392l-6.771-0.001l0.001-1.006h2.622l0-4.028
	h4.149l-0.002-2.533h-3.51c-0.624,1.492-1.358,2.843-2.207,4.058l-0.932-0.666C-508.89,288.885-507.94,286.922-507.299,284.778z
	 M-503.492,290.806l-3.022-0.002l0,3.037l3.02,0.002L-503.492,290.806z M-493.494,289.056l0,1.881
	c0.001,2.884-0.485,5.286-1.453,7.203l-0.842-0.887c0.413-0.934,0.715-1.939,0.904-3.025c0.187-1.087,0.279-2.421,0.28-3.998
	l0-4.327h5.57l-0.002-1.287l1.187-0.001l0,1.288l5.479,0.003v0.962l-2.383-0.001v1.241l2.371,0.003l-0.002,0.948l-2.368-0.002
	l-0.001,2.417h-6.487l0-2.417L-493.494,289.056z M-493.495,288.111l2.25-0.001l0.002-1.246l-2.251,0.003L-493.495,288.111z
	 M-491.614,293.887l0.964-0.534c0.729,0.82,1.639,1.506,2.724,2.062c1.144-0.577,2.137-1.312,2.978-2.209l-7.777-0.002l0.001-0.949
	l9.139-0.001l-0.002,0.951c-0.759,1.055-1.814,1.96-3.169,2.709c1.226,0.476,2.729,0.866,4.517,1.171l-0.34,0.95
	c-2.082-0.37-3.86-0.882-5.331-1.54c-1.453,0.651-3.239,1.16-5.36,1.54l-0.329-0.944c1.75-0.279,3.26-0.669,4.532-1.176
	C-490.132,295.316-490.982,294.638-491.614,293.887z M-490.103,288.111l4.19-0.003l0.002-1.241l-4.191-0.001L-490.103,288.111z
	 M-490.102,289.058v1.541h4.19l-0.001-1.541H-490.102z"/>
<text transform="matrix(0.8 0 0 1 -599.7852 300.0332)" font-family="'Futura-Bold'" font-size="51.0236" letter-spacing="-2.5">2025</text>
<g>
	<g>
		<g>
			<linearGradient id="SVGID_9_" gradientUnits="userSpaceOnUse" x1="103.1304" y1="43.9644" x2="103.1304" y2="56.7466">
				<stop  offset="0.5443" style="stop-color:#0099D9"/>
				<stop  offset="1" style="stop-color:#036EB8"/>
			</linearGradient>
			<path fill="url(#SVGID_9_)" d="M109.956,52.109l-0.207-0.976l-5.208,1.11l-0.625-2.943l4.1-0.869l-0.202-0.962l-4.104,0.872
				l-0.52-2.452l4.531-0.962l-0.202-0.963l-8.706,1.852c0.071-0.596,0.123-1.038,0.152-1.339l-1.124,0.017
				c-0.18,2.207-0.695,4.304-1.539,6.292l1.04,0.454c0.571-1.352,1.005-2.811,1.301-4.384l3.399-0.722l0.523,2.453l-4.017,0.854
				l0.829,3.902l-2.54,0.54l0.207,0.975l6.557-1.393l0.697,3.284l1.147-0.244l-0.697-3.285L109.956,52.109z M100.469,53.107
				l-0.625-2.941l2.926-0.621l0.624,2.942L100.469,53.107z"/>
			<g>
				<linearGradient id="SVGID_10_" gradientUnits="userSpaceOnUse" x1="119.0693" y1="46.8516" x2="119.0693" y2="54.4438">
					<stop  offset="0.5443" style="stop-color:#0099D9"/>
					<stop  offset="1" style="stop-color:#036EB8"/>
				</linearGradient>
				<path fill="url(#SVGID_10_)" d="M114.907,50.085l0.823-0.715c0.875,0.644,1.897,1.119,3.063,1.436
					c0.989-0.794,1.799-1.71,2.428-2.752l-7.531,1.599l-0.194-0.918l8.849-1.882l0.194,0.921c-0.518,1.177-1.354,2.272-2.512,3.275
					c1.285,0.209,2.822,0.276,4.616,0.205l-0.134,0.989c-2.093,0.071-3.919-0.059-5.479-0.394c-1.273,0.93-2.897,1.791-4.874,2.595
					l-0.513-0.847c1.638-0.63,3.021-1.319,4.147-2.072C116.636,51.165,115.673,50.682,114.907,50.085z"/>
				<linearGradient id="SVGID_11_" gradientUnits="userSpaceOnUse" x1="116.6069" y1="40.3315" x2="116.6069" y2="54.8892">
					<stop  offset="0.5443" style="stop-color:#0099D9"/>
					<stop  offset="1" style="stop-color:#036EB8"/>
				</linearGradient>
				<path fill="url(#SVGID_11_)" d="M122.848,43.511l-0.192-0.919l-2.297,0.484l-0.255-1.201l2.308-0.49l-0.198-0.931l-5.307,1.125
					l-0.264-1.247l-1.149,0.246l0.268,1.245l-5.394,1.146l0.891,4.19c0.324,1.528,0.509,2.839,0.551,3.929
					c0.041,1.092-0.044,2.127-0.252,3.116l0.998,0.685c0.543-2.055,0.519-4.482-0.076-7.274l-0.387-1.821l2.179-0.462l0.497,2.341
					l6.282-1.335l-0.496-2.34L122.848,43.511z M111.896,44.879l-0.254-1.205l2.179-0.467l0.254,1.208L111.896,44.879z
					 M114.926,42.976l4.059-0.862l0.254,1.203l-4.057,0.865L114.926,42.976z M115.694,46.589l-0.317-1.492l4.056-0.862l0.319,1.492
					L115.694,46.589z"/>
			</g>
		</g>
		<g>
			<linearGradient id="SVGID_12_" gradientUnits="userSpaceOnUse" x1="20.7378" y1="41.1938" x2="20.7378" y2="78.084">
				<stop  offset="0.5443" style="stop-color:#0099D9"/>
				<stop  offset="1" style="stop-color:#036EB8"/>
			</linearGradient>
			<path fill="url(#SVGID_12_)" d="M32.055,66.326l1.543,7.263l-21.147,4.496l4.861-10.175c0.282-0.61,0.599-1.29,0.95-2.035
				c0.351-0.745,0.696-1.551,1.037-2.414c0.339-0.864,0.671-1.769,0.992-2.716c0.322-0.946,0.591-1.89,0.804-2.831
				c0.232-0.979,0.385-1.948,0.455-2.911c0.071-0.961,0.023-1.838-0.145-2.628c-0.245-1.153-0.754-2.086-1.524-2.801
				c-0.771-0.713-1.566-0.984-2.383-0.81c-0.896,0.19-1.523,0.704-1.883,1.537c-0.36,0.833-0.407,1.876-0.14,3.129
				c0.007,0.033,0.014,0.065,0.02,0.099c0.036,0.164,0.079,0.336,0.131,0.514c0.051,0.179,0.134,0.41,0.25,0.695l-7.55,1.604
				c-0.833-3.918-0.503-7.226,0.99-9.917c1.494-2.694,3.755-4.362,6.786-5.006c2.846-0.605,5.451,0.021,7.814,1.876
				c2.364,1.855,3.907,4.48,4.628,7.873c0.329,1.549,0.437,3.032,0.326,4.449c-0.112,1.417-0.466,2.862-1.062,4.332
				c-0.149,0.342-0.308,0.694-0.478,1.057c-0.171,0.364-0.358,0.722-0.557,1.074l-3.334,6.079L32.055,66.326z"/>
			<linearGradient id="SVGID_13_" gradientUnits="userSpaceOnUse" x1="40.9453" y1="36.8887" x2="40.9453" y2="72.6655">
				<stop  offset="0.5443" style="stop-color:#0099D9"/>
				<stop  offset="1" style="stop-color:#036EB8"/>
			</linearGradient>
			<path fill="url(#SVGID_13_)" d="M52.107,52.406c-0.581-2.734-1.325-5.063-2.229-6.988c-0.905-1.925-2.056-3.582-3.452-4.972
				c-1.412-1.457-2.894-2.466-4.445-3.032c-1.553-0.565-3.146-0.674-4.78-0.327c-1.634,0.347-3.045,1.095-4.232,2.242
				c-1.189,1.149-2.145,2.676-2.868,4.586c-0.685,1.833-1.056,3.813-1.113,5.942c-0.057,2.13,0.206,4.561,0.787,7.295
				c0.574,2.701,1.322,5.022,2.244,6.961c0.92,1.938,2.071,3.622,3.448,5.05c1.438,1.449,2.931,2.449,4.48,2.998
				c1.548,0.548,3.139,0.649,4.773,0.302s3.046-1.086,4.238-2.217c1.191-1.132,2.136-2.649,2.834-4.554
				c0.703-1.871,1.076-3.877,1.115-6.021C52.948,57.53,52.681,55.107,52.107,52.406z M45.678,61.519
				c-0.405,2.049-1.253,3.21-2.543,3.484c-1.292,0.275-2.546-0.44-3.761-2.144c-1.216-1.704-2.142-4.054-2.78-7.052
				c-0.644-3.03-0.757-5.571-0.338-7.622c0.417-2.051,1.271-3.214,2.563-3.489c1.291-0.274,2.538,0.442,3.742,2.149
				c1.202,1.707,2.126,4.075,2.77,7.106C45.967,56.948,46.082,59.471,45.678,61.519z"/>
			<linearGradient id="SVGID_14_" gradientUnits="userSpaceOnUse" x1="63.0312" y1="32.2046" x2="63.0312" y2="69.0947">
				<stop  offset="0.5443" style="stop-color:#0099D9"/>
				<stop  offset="1" style="stop-color:#036EB8"/>
			</linearGradient>
			<path fill="url(#SVGID_14_)" d="M74.348,57.336l1.543,7.263l-21.147,4.496l4.861-10.175c0.283-0.611,0.6-1.29,0.951-2.036
				c0.35-0.744,0.695-1.55,1.036-2.414c0.339-0.863,0.671-1.769,0.993-2.716c0.322-0.946,0.59-1.889,0.804-2.831
				c0.231-0.979,0.384-1.948,0.454-2.911c0.071-0.961,0.023-1.838-0.145-2.629c-0.245-1.152-0.753-2.086-1.524-2.8
				c-0.771-0.714-1.566-0.984-2.382-0.81c-0.897,0.189-1.523,0.703-1.884,1.536c-0.359,0.834-0.407,1.877-0.14,3.129
				c0.007,0.034,0.014,0.066,0.021,0.099c0.036,0.165,0.078,0.337,0.13,0.515c0.051,0.179,0.134,0.41,0.251,0.694l-7.55,1.604
				c-0.833-3.919-0.504-7.226,0.99-9.918c1.493-2.694,3.755-4.361,6.786-5.005c2.845-0.605,5.45,0.021,7.814,1.875
				c2.363,1.856,3.906,4.48,4.627,7.874c0.329,1.549,0.437,3.031,0.326,4.449c-0.112,1.417-0.466,2.862-1.062,4.332
				c-0.149,0.341-0.308,0.693-0.478,1.056c-0.171,0.365-0.357,0.722-0.557,1.075l-3.334,6.079L74.348,57.336z"/>
		</g>
	</g>
	<linearGradient id="SVGID_15_" gradientUnits="userSpaceOnUse" x1="84.3062" y1="28.0981" x2="84.3062" y2="63.5405">
		<stop  offset="0.5443" style="stop-color:#0099D9"/>
		<stop  offset="1" style="stop-color:#036EB8"/>
	</linearGradient>
	<path fill="url(#SVGID_15_)" d="M95.254,48.622c-0.726-3.406-2.114-5.993-4.173-7.761c-2.057-1.767-4.396-2.371-7.018-1.812
		c-0.078,0.017-0.155,0.032-0.232,0.051c-0.08,0.014-0.156,0.031-0.235,0.046c-0.374,0.147-0.754,0.34-1.139,0.575
		c-0.384,0.231-0.856,0.562-1.416,0.987l5.01-12.609l-7.67,1.63l-3.736,10.761c-0.326,0.884-0.601,1.791-0.824,2.72
		s-0.399,1.849-0.533,2.759c-0.216,1.402-0.324,2.746-0.32,4.035c0.001,1.288,0.117,2.467,0.345,3.537
		c0.736,3.471,2.332,6.127,4.782,7.959c2.453,1.835,5.185,2.434,8.194,1.794c3.528-0.749,6.104-2.45,7.726-5.1
		C95.632,55.543,96.047,52.352,95.254,48.622z M87.996,54.383c-0.622,1.222-1.518,1.952-2.687,2.201
		c-1.193,0.253-2.314-0.051-3.366-0.913c-1.052-0.863-1.735-2.039-2.054-3.529c-0.31-1.46-0.162-2.806,0.445-4.036
		c0.605-1.233,1.506-1.975,2.7-2.228c1.191-0.252,2.315,0.05,3.367,0.91c1.051,0.863,1.735,2.042,2.053,3.534
		C88.772,51.813,88.618,53.167,87.996,54.383z"/>
</g>
</svg>
